<?xml version="1.0" encoding="UTF-8" standalone="no"?>
<svg
   xmlns:dc="http://purl.org/dc/elements/1.1/"
   xmlns:cc="http://creativecommons.org/ns#"
   xmlns:rdf="http://www.w3.org/1999/02/22-rdf-syntax-ns#"
   xmlns:svg="http://www.w3.org/2000/svg"
   xmlns="http://www.w3.org/2000/svg"
   viewBox="0 0 481.16 336.608"
   height="336.608"
   width="481.16"
   xml:space="preserve"
   id="svg2"
   version="1.1"><metadata
     id="metadata8"><rdf:RDF><cc:Work
         rdf:about=""><dc:format>image/svg+xml</dc:format><dc:type
           rdf:resource="http://purl.org/dc/dcmitype/StillImage" /></cc:Work></rdf:RDF></metadata><defs
     id="defs6"><clipPath
       id="clipPath18"
       clipPathUnits="userSpaceOnUse"><path
         id="path16"
         d="M 0,252.456 H 360.87 V 0 H 0 Z" /></clipPath></defs><g
     transform="matrix(1.3333333,0,0,-1.3333333,0,336.608)"
     id="g10"><g
       id="g12"><g
         clip-path="url(#clipPath18)"
         id="g14"><g
           transform="translate(243.0501,112.3644)"
           id="g20"><path
             id="path22"
             style="fill:#e9e9e9;fill-opacity:1;fill-rule:nonzero;stroke:none"
             d="m 0,0 h 1.439 c 1.268,0 1.903,0.496 1.903,1.49 0,0.995 -0.635,1.491 -1.903,1.491 H 0 Z M 3.444,-5.45 1.336,-1.748 H 0 V -5.45 H -2.211 V 4.935 h 3.856 c 1.131,0 2.073,-0.3 2.828,-0.9 0.753,-0.6 1.131,-1.413 1.131,-2.441 0,-1.475 -0.703,-2.468 -2.108,-2.982 L 5.964,-5.45 Z M -4.267,5.424 c -1.475,-1.491 -2.211,-3.386 -2.211,-5.681 0,-2.297 0.736,-4.19 2.211,-5.681 1.473,-1.491 3.375,-2.236 5.706,-2.236 2.331,0 4.233,0.745 5.707,2.236 1.473,1.491 2.211,3.384 2.211,5.681 0,2.295 -0.738,4.19 -2.211,5.681 C 5.672,6.914 3.77,7.66 1.439,7.66 -0.892,7.66 -2.794,6.914 -4.267,5.424 M -5.475,-7.095 c -1.834,1.816 -2.751,4.095 -2.751,6.838 0,2.742 0.917,5.02 2.751,6.838 1.833,1.816 4.138,2.724 6.914,2.724 2.776,0 5.081,-0.908 6.915,-2.724 1.833,-1.818 2.751,-4.096 2.751,-6.838 C 11.105,-3 10.187,-5.279 8.354,-7.095 6.52,-8.912 4.215,-9.82 1.439,-9.82 c -2.776,0 -5.081,0.908 -6.914,2.725" /></g><g
           transform="translate(114.1212,178.8824)"
           id="g24"><path
             id="path26"
             style="fill:#e9e9e9;fill-opacity:1;fill-rule:nonzero;stroke:none"
             d="M 0,0 C 0.084,0 0.167,0.083 0.084,0.25 0,0.25 -0.084,0.417 -0.167,0.585 -0.334,0.585 -0.334,0.501 -0.334,0.334 -0.167,0.334 -0.167,0.083 0,0 M 0,3.174 C -0.167,3.006 -0.417,3.09 -0.501,2.923 -0.501,2.755 -0.417,2.589 -0.25,2.505 0,2.673 0,2.839 0,3.174 m -0.752,-3.592 c 0.167,0 0.335,0 0.418,0.167 0,0.084 0,0.251 -0.167,0.251 -0.084,0 -0.084,-0.167 -0.167,-0.167 -0.084,-0.084 -0.167,0.083 -0.334,0 0.084,-0.084 0.167,-0.251 0.25,-0.251 M -1.67,2.505 V 2.338 C -1.754,2.255 -1.921,2.255 -1.921,2.171 c 0,-0.167 0.167,-0.334 0.251,-0.501 h 0.334 c 0.083,0.167 -0.084,0.167 -0.168,0.251 0.084,0.334 0,0.584 -0.166,0.584 M -0.668,2.087 C -0.752,1.921 -1.002,1.837 -1.169,1.754 -0.918,1.67 -0.585,1.67 -0.417,1.419 -0.501,1.253 -0.668,1.253 -0.668,1.085 -0.752,1.002 -0.585,0.918 -0.585,0.835 -0.668,0.751 -0.752,0.668 -0.835,0.668 -1.002,0.835 -0.752,1.169 -1.085,1.419 -1.169,1.253 -1.42,1.085 -1.586,1.169 -1.67,1.085 -1.67,1.002 -1.67,0.918 c 0.084,-0.083 0.166,0.084 0.25,0 0,0 0,-0.167 0.084,-0.167 0.083,0 0.083,0.084 0.083,0.084 0.084,0 0.084,0 0.084,-0.084 -0.084,-0.25 -0.501,-0.083 -0.668,-0.334 0,0.084 0,0.168 -0.084,0.084 -0.083,-0.084 -0.083,-0.167 0,-0.251 0.167,0.084 0.335,0 0.501,0 C -1.336,0.166 -1.336,0 -1.169,0 c 0.084,0 0.167,0 0.251,0.166 -0.084,0.084 -0.335,0.168 -0.167,0.335 0.083,0 0.083,-0.084 0.167,-0.167 0.083,0.251 0.417,0.167 0.417,0.417 0.251,0 0.334,-0.083 0.585,-0.083 0,0.167 0.251,0.167 0.251,0.25 C 0.167,1.169 0,1.336 -0.334,1.419 c 0.084,0.251 0.418,0 0.418,0.251 -0.168,0.084 -0.168,0.251 -0.168,0.417 -0.25,0.168 -0.333,0.084 -0.584,0 m -2.088,1.337 c 0,-0.25 0.251,-0.25 0.334,-0.334 -0.083,-0.335 -0.083,-0.417 0.25,-0.585 0.084,0.168 -0.083,0.25 0,0.418 0.335,0 0.251,0.251 0.335,0.418 0.167,0 0.167,-0.084 0.251,-0.167 0,-0.168 -0.168,-0.251 -0.084,-0.419 0.084,-0.082 0.25,-0.166 0.417,-0.166 0,-0.167 0.084,-0.334 0.084,-0.585 0.167,0.083 0.251,0.251 0.251,0.418 0,0.083 -0.084,0.083 -0.084,0.167 0,0.166 0.084,0.334 0.084,0.501 -0.167,-0.167 -0.335,-0.251 -0.502,0 0,0.167 -0.084,0.417 0.084,0.668 C -1.586,3.674 -1.67,3.842 -1.837,3.842 -2.004,3.424 -2.422,3.591 -2.756,3.424 M -3.925,3.257 c 0,0.25 0,0.501 -0.334,0.668 0.083,-0.251 0,-0.334 -0.084,-0.501 0.084,-0.083 0.167,-0.25 0.418,-0.167 m -3.508,-13.698 c -0.167,0.251 0.083,0.501 -0.084,0.752 -0.166,-0.251 -0.166,-0.417 -0.166,-0.668 0.083,0 0.166,-0.084 0.25,-0.167 z m -2.673,2.589 c 0.167,0.251 0,0.419 0,0.669 -0.334,-0.334 -0.334,-0.334 0,-0.669 m -1.002,-4.843 c 0.084,0.25 0.334,0.417 0.167,0.668 -0.25,-0.167 -0.167,-0.502 -0.418,-0.585 -0.167,0 -0.333,0.167 -0.501,0 0.251,-0.25 0.501,0.083 0.752,-0.083 m 0,2.338 c -0.167,-0.084 -0.334,-0.167 -0.501,-0.251 -0.167,-0.333 -0.502,-0.584 -0.334,-1.002 0.083,0.585 0.417,1.002 0.835,1.253 M -25.64,4.76 c -0.084,0.167 -0.251,0.167 -0.418,0 0.251,-0.083 0.501,-0.334 0.835,-0.083 -0.167,0.083 -0.334,-0.083 -0.417,0.083 m -0.586,-19.878 c -0.082,-0.25 -0.25,-0.333 -0.417,-0.25 -0.083,-0.167 0,-0.167 0,-0.251 0,-0.083 -0.167,-0.083 -0.083,-0.25 0.083,-0.084 0.167,-0.084 0.25,-0.084 0.084,0.084 0,0.167 0.084,0.251 0.084,0 0.166,0 0.334,0.083 0,0.168 0,0.334 -0.168,0.501 m 4.845,-1.085 c 0.083,-0.251 0.167,-0.501 0.251,-0.668 -0.168,-0.084 -0.251,0.083 -0.418,0.083 -0.083,0 -0.167,-0.167 -0.334,-0.083 -0.167,0.083 0,0.25 -0.167,0.333 -0.25,0.084 -0.501,0.084 -0.752,0 0,-0.166 0.167,-0.083 0.167,-0.25 -0.083,-0.167 -0.167,-0.083 -0.251,-0.083 -0.166,0.083 -0.083,0.167 -0.25,0.25 -0.501,0.083 -0.668,0.251 -0.668,0.585 -0.084,0 -0.084,0 -0.167,-0.084 v -0.083 c -0.334,0.083 0,0.334 -0.084,0.501 -0.167,0 -0.167,-0.251 -0.333,-0.334 -0.084,0.083 0,0.167 -0.084,0.25 -0.084,-0.083 -0.167,-0.167 -0.167,-0.167 -0.084,-0.167 0,-0.167 0,-0.334 -0.084,0 -0.168,-0.083 -0.334,-0.251 0,0.251 -0.084,0.418 -0.167,0.585 -0.084,0 -0.168,-0.083 -0.251,0 0,0.084 0.083,0.167 0,0.251 -0.167,0 -0.084,-0.251 -0.25,-0.251 -0.084,-0.083 -0.167,0.084 -0.335,-0.083 0.168,-0.251 0.585,0 0.752,-0.251 -0.417,-0.167 -2.172,0.167 -2.673,0.501 -0.083,0.084 -0.334,-0.083 -0.5,0.167 0,0.168 0.25,0.084 0.25,0.251 -0.25,0.167 -0.418,-0.167 -0.669,-0.167 -0.166,0.167 -0.417,0.25 -0.584,0.334 0.084,0.251 0.251,0.251 0.418,0.334 0,0.334 -0.418,0 -0.502,0.334 -0.25,-0.25 -0.25,-0.25 -0.166,-0.501 -0.502,0 -0.836,0.334 -1.336,0.501 -0.084,0.083 0.082,0.167 0,0.251 0,0.083 -0.084,0.167 -0.168,0.167 -0.083,0 -0.167,-0.084 -0.251,-0.084 -0.417,0.084 -0.835,0.25 -1.001,0.669 -0.168,0.083 -0.251,-0.084 -0.335,0 -0.334,0.167 -0.584,0.417 -0.835,0.668 -0.334,0 -0.501,0.167 -0.751,0.333 -0.418,0.251 -0.668,0.585 -1.087,0.836 -0.25,0.083 -0.417,0.334 -0.584,0.501 -0.334,0.251 -0.668,0.501 -1.002,0.835 -0.167,0.251 -0.418,0.417 -0.668,0.668 -0.251,0.251 -0.502,0.668 -0.836,1.003 -0.167,0.083 -0.167,0.334 -0.25,0.501 -0.501,0.25 -0.752,0.668 -1.002,1.085 -0.585,0.752 -1.17,1.504 -1.671,2.256 -0.334,0.668 -0.668,1.336 -1.002,2.004 -0.584,1.253 -0.835,2.506 -1.17,3.842 -0.083,0.501 -0.166,1.169 -0.333,1.671 -0.084,0.668 -0.168,1.419 -0.251,2.087 -0.167,0.668 -0.167,1.42 -0.25,2.172 -0.084,0.919 -0.168,1.921 -0.168,2.84 0.084,0.584 0.084,1.169 0.084,1.67 0,0.835 0.084,1.67 0.167,2.506 0,0.417 0.167,0.918 0.25,1.42 0.084,0.751 0.418,1.502 0.501,2.338 0.167,0.084 0.167,0.334 0.251,0.501 0.251,1.252 0.919,2.255 1.504,3.257 0.333,0.502 0.501,1.003 0.835,1.42 0.417,0.502 0.668,1.17 1.086,1.671 0.167,0.25 0.167,0.584 0.584,0.668 0.251,0.501 0.668,0.835 1.003,1.253 0.417,0.584 1.002,1.001 1.502,1.503 0.168,0.167 0.335,0.417 0.669,0.334 0.083,0.083 0.083,0.167 0.167,0.251 0.501,0.417 1.085,0.668 1.503,1.085 0.168,0.084 0.084,-0.083 0.251,-0.083 0,0.083 0,0.25 0.083,0.334 0.167,0.084 0.251,0.334 0.585,0.417 0.668,0.585 1.503,1.087 2.339,1.588 0.333,0.25 0.668,0.5 1.085,0.417 v 0.251 c 0.167,0.083 0.335,0.25 0.502,0.167 0.918,0.417 1.753,0.918 2.589,1.253 0.334,0.25 0.668,0.501 1.169,0.501 0.334,0.333 0.668,0.668 1.253,0.668 0.584,0.417 1.336,0.584 2.171,0.835 0.084,0.25 0.501,0.167 0.669,0.417 0.5,0.251 1.085,0 1.503,0.501 0.25,0.168 0.668,-0.083 0.835,0.251 1.503,0 2.756,0.752 4.176,1.169 0.584,-0.501 1.253,-0.835 1.921,-1.169 0.334,-0.083 0.668,-0.251 0.835,-0.501 0.417,-0.501 1.002,-0.752 1.337,-1.336 0,-0.084 0.083,-0.084 0.167,-0.167 0.501,-0.418 0.918,-0.919 1.085,-1.587 0.167,-0.418 0.167,-0.835 0.084,-1.253 v -0.417 c -0.167,-0.335 -0.501,-0.585 -0.752,-0.92 -0.501,-0.083 -0.752,-0.417 -1.169,-0.584 -0.501,-0.334 -1.003,-0.752 -1.42,-1.086 -0.167,-0.167 -0.417,-0.25 -0.585,-0.334 -0.418,-0.334 -0.751,-0.668 -1.086,-1.002 -0.25,-0.251 -0.584,-0.584 -1.002,-0.584 -0.251,-0.084 -0.417,-0.335 -0.668,-0.502 -0.919,-0.752 -1.837,-1.586 -2.923,-2.171 -0.418,-0.251 -0.919,-0.585 -1.337,-0.919 -0.083,-0.084 -0.25,-0.167 -0.333,-0.167 -0.168,-0.084 -0.335,-0.084 -0.418,-0.168 -0.25,-0.5 -0.835,-0.751 -1.169,-1.169 -0.168,-0.167 -0.418,-0.25 -0.585,-0.417 -0.585,-0.334 -1.253,-0.501 -1.587,-1.003 -0.25,-0.083 -0.418,0 -0.585,-0.083 -0.25,-0.501 -0.584,-0.918 -1.085,-1.169 -0.084,-0.084 -0.167,-0.168 -0.251,-0.25 -0.417,-0.418 -0.835,-0.919 -1.42,-1.254 -0.083,-0.083 -0.083,-0.25 -0.083,-0.333 -0.418,-0.084 -0.502,-0.418 -0.752,-0.669 -0.835,-0.835 -1.587,-1.67 -2.171,-2.756 -0.251,-0.501 -0.669,-0.919 -0.919,-1.336 -0.084,-0.251 -0.25,-0.334 -0.418,-0.418 -0.584,-1.419 -1.169,-2.756 -1.753,-4.176 -0.084,-0.083 0,-0.167 0,-0.334 -0.168,-0.083 -0.084,-0.418 -0.335,-0.585 0.167,-0.501 0.084,-1.002 -0.083,-1.503 -0.168,-0.751 -0.084,-1.503 -0.168,-2.255 -0.082,-0.417 -0.082,-0.668 0,-1.085 0,-0.084 0,-0.251 -0.082,-0.335 V 2.004 c 0.082,-0.751 0.082,-1.503 0.166,-2.255 0,-0.083 0,-0.167 0.084,-0.251 0.083,-0.25 0.083,-0.25 -0.168,-0.501 0.084,0 0.168,-0.083 0.168,-0.083 v 0.083 c 0.083,-0.584 0.083,-1.085 0.167,-1.503 0.167,-0.752 0.167,-1.503 0.417,-2.255 0.251,-0.752 0.418,-1.671 0.836,-2.339 0.25,-0.417 0.417,-0.918 0.835,-1.252 0.417,-0.418 0.752,-0.836 1.253,-1.086 0.333,-0.167 0.584,-0.418 0.835,-0.584 0.918,-0.586 1.837,-0.669 2.839,-0.586 0.836,0 1.671,0.084 2.506,0.251 0.501,0.167 1.086,0.335 1.587,0.501 1.503,0.418 2.756,1.17 4.009,1.921 1.503,0.919 2.756,1.922 4.176,2.923 0.167,0.168 0.251,0.251 0.417,0.418 0.335,0.251 0.335,0.334 0.752,0.418 0.084,0.417 0.418,0.584 0.919,0.584 0.417,0 1.002,0.084 1.336,0.501 -0.501,-0.333 -1.002,-0.25 -1.503,-0.25 0.334,0.25 0.584,0.668 1.086,0.918 0.083,0.251 0.334,0.419 0.501,0.669 0.918,0.835 1.754,1.754 2.505,2.672 0.084,0.084 0.168,0 0.251,0 -0.083,0.501 0.418,0.752 0.585,1.086 0.333,0.418 0.501,0.919 1.002,1.253 v 0.25 h 0.167 c 0.083,0.167 0,0.251 0.083,0.418 0,0.084 0.168,0 0.251,0.084 0.083,0.083 0.167,0.25 0.25,0.334 -0.167,0.083 -0.25,-0.084 -0.333,0 -0.168,0.167 -0.168,0.334 -0.168,0.501 -0.167,0.334 -0.584,0.334 -0.835,0.334 -0.668,0 -1.336,0.167 -1.921,0 -0.919,-0.167 -1.837,-0.251 -2.672,-0.584 -0.251,-0.084 -0.418,-0.084 -0.669,-0.168 -0.835,-0.251 -1.753,-0.417 -2.672,-0.668 -0.585,-0.167 -1.086,-0.251 -1.67,-0.334 -0.668,0 -1.337,-0.25 -2.172,-0.083 -0.167,-0.167 -0.418,-0.251 -0.752,-0.251 -0.417,0.417 -0.919,0.167 -1.336,0.251 -0.501,0 -1.003,-0.084 -1.42,0 -0.417,0.166 -0.835,0.083 -1.253,0 -0.501,-0.084 -0.919,-0.084 -1.42,0.166 -0.251,0.084 -0.501,0.251 -0.751,0.251 -0.084,0.668 -0.752,0.752 -1.086,1.086 -0.084,0.083 -0.084,0.25 -0.167,0.334 0.251,0.752 1.671,1.42 2.505,1.253 0.836,0.167 1.755,0.083 2.589,0.501 0.084,-0.084 0.251,-0.084 0.335,-0.084 1.002,0.251 2.004,0.335 3.006,0.668 0.084,-0.083 0.167,-0.083 0.335,-0.083 0.333,0.334 0.584,0.334 0.919,0.167 0.166,0.251 0.501,0.418 0.834,0.334 0.919,0.334 1.921,0.418 2.756,0.752 0.168,0 0.084,-0.167 0.251,-0.167 0.25,0.501 0.668,0.584 1.169,0.584 0.251,0.168 0.501,0.334 0.752,0.251 0.084,0.083 0.167,0.167 0.251,0.167 0.585,0.083 1.002,0.418 1.503,0.501 0.251,0.083 0.502,0.167 0.835,0.25 0.501,0.084 0.836,-0.25 1.169,-0.5 l 0.084,-0.084 c 0.418,0 0.919,-0.084 1.336,-0.251 0.084,-0.083 0.167,-0.166 0.167,-0.25 0.334,-0.334 0.92,-0.167 1.253,-0.501 0.167,-0.251 0.501,-0.251 0.752,-0.334 0.167,-0.084 0.334,-0.168 0.501,-0.251 0.083,-0.167 -0.167,-0.25 0,-0.418 0.167,0 0.167,0.251 0.334,0.251 0.25,-0.083 0.501,-0.251 0.418,-0.584 0.167,-0.084 0.251,0.083 0.417,0.166 0.251,-0.501 1.086,-0.417 1.17,-1.169 0.166,0.084 0.25,0.084 0.417,0 h 0.084 c 0.083,0.084 0.083,0.084 0.167,0.084 0.166,-0.084 0.25,-0.251 0.417,-0.251 0.084,-0.084 0.168,-0.084 0.251,-0.084 0.25,-0.166 0.084,-0.333 0.084,-0.417 0.166,-0.084 0.166,0.167 0.333,0.084 0.084,0 -0.083,-0.084 0,-0.168 0,0 0,-0.083 0.084,0 C -0.167,5.679 0.084,5.345 0.251,5.178 0.668,4.76 1.003,4.259 1.253,3.758 1.169,3.341 1.169,3.006 1.253,2.589 1.336,2.422 1.253,2.171 1.169,2.004 0.919,1.586 0.835,1.085 0.668,0.668 0.501,0.25 0.335,-0.167 0.167,-0.585 0,-1.17 -0.25,-1.754 -0.334,-2.423 c 0,-0.167 0,-0.333 -0.083,-0.501 -0.168,-0.167 -0.335,-0.417 -0.335,-0.668 -0.083,-0.167 -0.166,-0.251 -0.25,-0.417 -0.167,-0.084 -0.334,-0.251 -0.334,-0.502 -0.334,-0.083 -0.418,-0.417 -0.501,-0.668 -0.167,-0.334 -0.335,-0.584 -0.501,-0.834 0,-0.168 -0.167,-0.168 -0.251,-0.084 0,-0.167 0,-0.251 -0.084,-0.335 -0.25,-0.167 -0.417,-0.5 -0.751,-0.584 -0.25,-0.084 -0.25,-0.417 -0.25,-0.668 -0.251,0 -0.335,-0.418 -0.669,-0.251 -0.083,-0.167 -0.083,-0.334 -0.083,-0.501 -0.418,-0.334 -0.752,-0.668 -1.087,-1.002 -0.166,-0.251 -0.5,-0.418 -0.834,-0.502 -0.335,-0.584 -0.752,-0.834 -1.336,-1.001 -0.084,0 -0.084,-0.251 -0.251,-0.418 -0.084,-0.167 -0.334,-0.083 -0.501,-0.167 -0.167,-0.167 -0.335,-0.418 -0.585,-0.501 -0.251,-0.418 -0.418,-0.585 -1.002,-0.835 0,-0.168 -0.084,-0.418 -0.168,-0.585 -0.166,0 -0.333,0.084 -0.333,0.25 -0.418,-0.083 -0.084,-0.25 -0.084,-0.333 -0.251,-0.084 -0.501,-0.084 -0.752,-0.084 -0.167,-0.417 -0.501,-0.752 -0.918,-1.086 -0.167,0.083 -0.334,-0.083 -0.585,0 -0.167,0.167 -0.334,0.167 -0.501,0.334 -0.167,-0.167 -0.167,-0.334 -0.334,-0.501 0.25,-0.083 0.167,0.167 0.334,0.084 0.083,0 0.167,0 0.251,-0.084 -0.335,-0.418 -0.836,-0.251 -1.087,-0.584 -0.25,-0.084 -0.417,-0.168 -0.584,0.083 0,0.167 0.167,0.083 0.167,0.25 -0.167,0.335 -0.501,0 -0.668,0.168 0.084,-0.168 0.167,-0.418 0.334,-0.585 -0.334,-0.084 -0.334,-0.084 -0.418,0.334 -0.083,0 -0.083,0.083 -0.25,0 0.083,-0.25 -0.167,-0.334 -0.167,-0.585 0.084,-0.167 0.334,0 0.334,-0.25 -0.167,0 -0.25,-0.084 -0.418,-0.167 -0.251,0.083 0,0.25 -0.167,0.334 -0.167,-0.084 -0.334,0 -0.417,0.167 -0.084,-0.084 -0.167,-0.167 -0.251,-0.251 -0.084,-0.167 0,-0.417 -0.334,-0.334 -0.083,0.167 0.084,0.251 0.084,0.418 -0.418,0 -0.752,-0.501 -1.17,-0.084 -0.166,-0.334 -0.501,-0.167 -0.752,-0.167 -0.166,-0.083 -0.083,-0.25 -0.083,-0.418 -0.083,-0.083 -0.167,-0.166 -0.334,-0.083 -0.167,0.083 0.084,0.334 -0.167,0.418 -0.25,-0.167 -0.167,-0.418 -0.334,-0.585 -0.334,-0.251 -0.334,-0.251 -0.501,0.084 0.167,0.083 0,0.25 0.083,0.334 0,0.167 0.251,0.083 0.251,0.334 -0.251,-0.167 -0.501,-0.084 -0.585,-0.418 0.084,-0.084 0.167,-0.167 0.251,-0.334 -0.334,0.167 -0.752,0.25 -1.086,0.585" /></g><g
           transform="translate(138.3439,165.4355)"
           id="g28"><path
             id="path30"
             style="fill:#e9e9e9;fill-opacity:1;fill-rule:nonzero;stroke:none"
             d="m 0,0 c 0,-0.084 0.084,-0.251 0.167,-0.251 0.167,0 0.167,0.084 0.251,0.167 C 0.334,0.084 0.167,0.166 0,0 M 0.501,0.835 H 0 C 0.084,0.668 -0.084,0.585 -0.084,0.417 0.167,0.585 0.418,0.668 0.752,0.752 v 0.25 C 0.585,1.002 0.585,0.835 0.501,0.835 m 5.68,35.412 c -0.335,0.586 -0.501,1.17 -0.919,1.671 -0.084,0.167 -0.167,0.251 -0.25,0.417 -0.335,0.668 -0.836,1.17 -1.253,1.838 -0.251,0.418 -0.668,0.835 -1.003,1.169 -0.501,0.501 -0.919,1.002 -1.503,1.42 -0.585,0.501 -1.086,1.002 -1.754,1.253 v 0.084 c -0.251,0.25 -0.501,0.333 -0.835,0.417 -0.334,0.084 -0.752,0.251 -1.169,0 -0.836,-0.417 -1.588,-1.085 -2.172,-1.921 -0.501,-0.668 -0.918,-1.42 -1.336,-2.172 -0.084,-0.167 -0.084,-0.417 -0.251,-0.501 -0.334,-0.5 -0.501,-1.002 -0.585,-1.587 -0.417,-1.169 -0.668,-2.505 -0.918,-3.758 -0.251,-1.002 -0.418,-2.088 -0.418,-3.09 -0.083,-1.253 -0.25,-2.506 -0.25,-3.675 -0.084,-0.919 -0.167,-1.754 -0.167,-2.589 v -1.587 c 0,-0.334 0.083,-0.668 0.083,-1.002 0.084,-1.169 0.084,-2.339 0.167,-3.592 0.084,-0.752 0.167,-1.503 0.501,-2.254 0.334,-0.752 0.501,-1.588 0.752,-2.423 0.25,-0.835 0.501,-1.67 1.002,-2.422 0.084,-0.251 0.334,-0.418 0.334,-0.752 0.25,-0.083 0.25,-0.334 0.334,-0.5 0.084,-0.084 0.167,0 0.251,0 0.251,-0.335 0.501,-0.502 0.668,-0.836 C -4.426,9.688 -4.343,9.521 -4.259,9.438 -4.093,9.187 -3.925,9.02 -3.842,8.853 -3.424,8.268 -2.923,7.767 -2.422,7.35 -1.754,6.765 -1.002,6.18 -0.334,5.679 0.167,5.178 0.752,4.844 1.253,4.426 1.671,4.009 1.921,4.009 2.339,4.51 c 0.334,0.251 0.585,0.417 0.918,0.584 0.167,0 0.251,0.084 0.418,0.168 0.334,0.167 0.418,0.501 0.668,0.751 0,0.418 0.585,0.585 0.501,1.086 0.084,0 0.168,0.167 0.251,0.084 0.167,-0.084 0.083,-0.251 0.167,-0.335 0.251,-0.166 0.251,-0.166 0.584,0 0,0.084 0.084,0.251 0.084,0.335 0.418,0.167 0.584,0.5 0.752,0.835 0.25,0.584 0.584,1.085 0.751,1.67 0.084,0.251 0.251,0.501 0.585,0.501 0,0.418 0.251,0.668 0.418,1.002 0.166,0.334 0.417,0.585 0.501,0.92 0.167,0.584 0.25,1.252 0.585,1.753 0.083,0.167 0.083,0.334 0,0.585 0,0.083 0,0.251 0.083,0.417 0.084,0.502 0.25,0.919 0.25,1.42 0.084,0.668 0.335,1.336 0.251,1.921 0.084,0.167 0.251,0.167 0.251,0.334 0,0.084 -0.084,0.168 -0.084,0.251 0.084,0.334 0.084,0.668 0.168,1.002 0.082,0.417 0.082,0.752 0,1.085 -0.084,0.335 -0.168,0.586 -0.168,0.836 0.084,0.668 -0.167,1.336 -0.334,2.004 0,0.418 -0.167,0.919 -0.167,1.337 0,0.501 0.083,0.919 -0.167,1.42 -0.083,0 0,0.167 0,0.25 -0.083,0.669 -0.167,1.42 -0.334,2.089 -0.167,0.333 -0.25,0.751 -0.25,1.169 -0.084,0.25 -0.335,0.501 -0.168,0.835 -0.251,0.25 -0.417,0.501 -0.417,0.835 -0.084,0.501 -0.418,0.919 -0.585,1.42 -0.25,0.668 -0.668,1.252 -0.835,1.92 -0.418,0.335 -0.584,0.836 -0.835,1.253 m -23.219,-1.921 c 0.25,-0.25 0,-0.584 0.167,-0.834 0.251,0.25 0.167,0.417 0.083,0.668 0,0.166 0.084,0.25 0,0.417 -0.083,0 -0.166,-0.083 -0.25,-0.251 m -0.501,-10.774 c -0.25,-0.334 -0.083,-0.668 -0.167,-0.918 0.25,0.167 0.334,0.334 0.167,0.918 m 0.083,-2.422 c -0.083,0.084 -0.166,0.251 -0.333,0.084 0.083,-0.167 0.083,-0.335 0.167,-0.585 0.25,0.168 0.166,0.334 0.166,0.501 m -0.501,9.522 c -0.083,-0.167 0.084,-0.167 0.084,-0.251 0,-0.167 -0.167,-0.167 -0.167,-0.25 0,-0.167 0,-0.251 0.167,-0.335 0.167,0 0.251,0.084 0.251,0.251 -0.084,0.167 -0.084,0.418 0,0.752 -0.167,0.083 -0.251,0 -0.335,-0.167 m -0.584,0.333 c 0.083,0.251 -0.084,0.419 -0.251,0.502 -0.084,-0.083 -0.084,-0.251 -0.25,-0.334 0.083,-0.084 0,-0.251 0.083,-0.334 0.167,0 0.083,0.25 0.25,0.25 0.084,0.084 0.084,-0.167 0.168,-0.084 m 0.835,2.339 c 0,0.168 0,0.251 0.084,0.418 0,0.251 -0.335,0.334 -0.251,0.584 0.084,0.084 0.251,0.084 0.251,0.251 0,0.167 -0.251,0 -0.251,0.167 0,0.084 0.167,0.167 0.167,0.334 -0.167,0.251 0,0.501 0.084,0.752 0.083,0.334 0.083,0.752 0.25,1.085 0.251,0.502 0.418,1.087 0.501,1.671 0.083,0.334 0.167,0.752 0.501,1.086 0.084,0.083 0.084,0.167 0.084,0.25 0.334,0.168 0.334,0.418 0.417,0.752 0.334,0.167 0.585,0.501 0.585,0.918 0,0.335 0.251,0.586 0.417,0.836 0.251,0.334 0.418,0.584 0.668,0.835 0.251,0.168 0.418,0.418 0.418,0.752 0.418,0 0.669,0.334 1.002,0.417 0.084,0.084 -0.083,0.168 0,0.335 0.084,0.083 0.335,0.083 0.335,0.333 0.167,0.084 0.25,0 0.417,0 0.167,0.084 0.251,0 0.335,0.251 0.083,0.168 0.25,0.168 0.417,0.25 0.084,0 0.084,0.168 0.167,0.251 0.417,0.168 0.918,0.335 1.336,0.585 0.334,0.167 0.669,0.418 1.002,0.418 h 0.168 c 0.25,0.334 0.5,0.166 0.835,0.25 0.25,0.418 0.752,0.501 1.169,0.501 0.668,0.167 1.336,0.334 1.921,0.502 h 0.334 c 0.334,0.083 0.585,0.083 0.919,0.166 0.835,0 1.67,0.167 2.589,0 0.418,0 0.835,-0.083 1.169,-0.083 0.669,-0.083 1.17,-0.251 1.754,-0.418 0.251,-0.083 0.501,-0.083 0.668,-0.167 0.919,-0.334 1.921,-0.501 2.84,-0.918 0.668,-0.251 1.253,-0.585 1.921,-0.919 0.835,-0.418 1.504,-1.002 2.172,-1.504 0.584,-0.584 1.169,-1.169 1.67,-1.67 0.835,-0.919 1.587,-1.837 2.255,-2.84 0.167,-0.25 0.334,-0.584 0.501,-0.918 0.167,-0.334 0.335,-0.585 0.501,-0.919 0.251,-0.335 0.418,-0.668 0.584,-1.085 0,0 0,-0.084 0.084,-0.084 0.335,-0.418 0.418,-0.919 0.668,-1.336 0.335,-0.669 0.585,-1.337 0.836,-1.921 0.334,-0.668 0.417,-1.337 0.668,-1.922 0.167,-0.417 0.251,-0.918 0.334,-1.336 0.167,-0.919 0.334,-1.838 0.585,-2.756 0.25,-1.336 0.25,-2.672 0.417,-4.092 0.084,-0.836 0.084,-1.671 0.084,-2.507 0.083,-1.169 0.251,-2.338 0.167,-3.59 C 18.959,16.036 18.709,14.783 18.458,13.53 18.291,12.779 18.124,12.027 17.957,11.275 17.623,10.106 17.205,9.02 16.62,8.018 16.203,7.35 15.869,6.682 15.451,6.013 14.95,5.345 14.616,4.594 13.864,4.093 13.698,4.093 13.614,3.925 13.447,3.925 13.113,3.842 12.946,3.674 12.862,3.424 12.528,2.673 12.194,1.921 11.86,1.169 11.693,0.752 11.442,0.334 10.941,0 c -0.25,-0.167 -0.418,-0.418 -0.5,-0.752 -0.168,-0.083 -0.335,0.167 -0.502,0.084 -0.334,-0.418 -0.918,-0.084 -1.337,-0.335 -0.166,0.084 -0.083,0.168 -0.166,0.168 -0.167,0 -0.084,-0.251 -0.167,-0.418 -0.167,0.083 -0.418,0.083 -0.585,0 -0.083,0 -0.083,0.083 -0.167,0.083 -0.167,0.084 -0.251,0 -0.334,0 C 7.1,-1.17 7.1,-1.086 7.016,-1.003 6.849,-0.919 6.765,-1.086 6.598,-0.919 6.514,-1.086 6.432,-1.17 6.348,-1.253 c 0.084,-0.083 0.166,0 0.334,0 -0.084,-0.251 -0.25,-0.167 -0.418,-0.167 -0.418,0 -0.835,0 -1.169,-0.084 -0.334,-0.083 -0.668,-0.083 -1.002,0 -0.084,0.168 0,0.334 0,0.501 0,0.084 -0.168,0.084 -0.168,0.168 0,0.167 0.418,0.083 0.168,0.333 -0.168,0 -0.334,-0.083 -0.585,-0.083 v -0.25 c 0.084,-0.084 0.167,0.083 0.251,0.083 -0.084,-0.251 0.166,-0.501 0.166,-0.835 -1.753,0 -3.424,0 -5.094,0.167 -0.167,0.084 0,0.25 -0.167,0.25 -0.168,0 -0.084,-0.166 -0.168,-0.25 0,0.084 -0.082,0.084 -0.082,0.084 -0.168,0.083 -0.335,0.083 -0.586,0.083 -0.584,0 -1.252,0.083 -1.837,0.334 -0.585,-0.084 -2.422,0.668 -2.673,1.085 -0.167,-0.25 -0.417,-0.166 -0.584,0 -0.251,0.168 -0.501,0.084 -0.668,0.419 h -0.168 c -0.584,0.25 -1.169,0.584 -1.753,0.918 -0.501,0.334 -0.919,0.668 -1.504,1.002 -0.167,0.084 -0.333,0.334 -0.333,0.585 -0.084,0.084 -0.168,0 -0.251,0 -0.084,0.084 -0.084,0.167 -0.168,0.334 -0.668,0.25 -1.085,0.835 -1.67,1.337 0,0.166 -0.083,0.25 -0.167,0.417 0.084,0.084 0.084,0.167 0.167,0.251 0,0.083 -0.083,0.25 -0.167,0.334 -0.251,0.083 -0.417,0.167 -0.668,0.25 -0.084,0.501 -0.584,0.585 -1.002,0.669 0,0.25 -0.083,0.501 -0.167,0.668 -0.167,0.417 -0.585,0.501 -0.668,1.002 0,0.167 -0.167,0.334 -0.335,0.501 -0.166,0.167 -0.333,0.418 -0.333,0.668 0,0.334 0,0.668 -0.084,1.002 -0.084,0.168 0.084,0.251 0,0.334 -0.167,-0.083 -0.251,0 -0.334,0.167 -0.083,0.251 -0.25,0.418 -0.418,0.585 0,0.752 -0.251,1.503 -0.501,2.172 -0.083,0.417 -0.167,0.835 -0.167,1.252 0,0.251 0.084,0.501 -0.084,0.752 -0.083,0.084 0,0.167 0,0.251 0.084,0.084 0.168,0.084 0.251,0.084 0,0.25 -0.083,0.25 -0.251,0.166 -0.167,0.668 -0.25,1.42 -0.25,2.172 -0.167,0.167 -0.25,0.584 -0.585,0.584 0,0.251 -0.083,0.335 -0.166,0.501 0,0.167 0.083,0.167 0.083,0.335 0,0.167 -0.167,0.083 -0.251,0.25 -0.083,0 -0.167,-0.167 -0.25,-0.167 -0.084,0.167 -0.167,0.334 -0.084,0.418 0.167,0.167 0.334,0.083 0.418,0.25 -0.084,0 -0.084,0.084 -0.167,0.168 -0.167,0 -0.251,0.082 -0.418,0.166 0,0.167 -0.167,0.335 -0.25,0.418 -0.084,0.167 -0.168,0.334 -0.168,0.501 0.168,-0.084 0.251,-0.251 0.335,-0.417 0.083,-0.084 0.25,-0.167 0.334,-0.251 0.25,0.417 0.167,0.752 0.167,1.169 v 1.086 c 0,0.083 -0.084,0.083 -0.167,0.083 -0.167,0.251 0.083,0.585 -0.084,0.835 -0.167,0.251 0,0.419 0.418,0.669 -0.167,0.167 -0.251,0.418 -0.251,0.751 0.084,0.084 0.167,0 0.251,0 0,0.168 0.084,0.251 0.084,0.335 -0.168,0.166 -0.251,-0.084 -0.335,0 -0.167,0.25 -0.25,0.584 0,0.835 0,0.25 -0.167,0.584 0.084,0.835 0,0.084 -0.084,0.084 -0.084,0.167 0,0.084 0.084,0.167 0.167,0.25 v 0.335 c -0.083,0.167 -0.167,-0.084 -0.25,0.083 0.083,0.168 0.25,0.25 0.167,0.501 0.083,0.251 0.417,0.084 0.584,0.167 v 0.418 c -0.25,-0.167 -0.417,0 -0.501,0.167 0,0.167 0.084,0.167 0.084,0.334 -0.084,0 -0.251,0 -0.167,0.167 0.251,0.084 0.417,0.084 0.668,0.334 -0.251,0 -0.334,0.25 -0.585,0.334 0,0.084 0.084,0.167 0.084,0.251 0.167,0 0.334,-0.084 0.501,-0.084 0.084,0.168 0.167,0.334 0.251,0.418 0.501,0 0.584,0.167 0.417,0.418 -0.167,0 -0.167,-0.167 -0.251,-0.167 -0.083,0.25 0.084,0.333 0.251,0.5 0.084,0.335 0.084,0.669 0,1.003 0.335,0.25 0.167,0.752 0.501,1.002 0.251,-0.084 -0.084,-0.417 0.251,-0.501 -0.167,-0.334 0,-0.585 0.167,-0.919 -0.167,-0.166 -0.334,-0.25 -0.418,-0.501 0.084,-0.167 0.251,-0.251 0.251,-0.417 0.251,0.166 0.251,0.333 0.334,0.584 -0.25,0 -0.25,0.168 -0.25,0.334 0.167,0.084 0,0.167 0.083,0.334" /></g><g
           transform="translate(77.8492,146.4224)"
           id="g32"><path
             id="path34"
             style="fill:#e9e9e9;fill-opacity:1;fill-rule:nonzero;stroke:none"
             d="M 0,0 C -0.167,-0.083 -0.167,-0.25 -0.167,-0.417 -0.084,-0.501 -0.084,-0.668 0.084,-0.668 0.166,-0.501 0.25,-0.417 0.25,-0.25 0.25,-0.083 0.166,0 0,0 m 16.87,-43.597 c -0.082,-0.251 -0.25,-0.418 -0.417,-0.502 -0.251,-0.166 -0.417,-0.417 -0.584,-0.668 -0.418,-0.751 -1.086,-1.002 -1.921,-1.002 -0.501,0 -1.003,-0.167 -1.337,-0.501 -0.418,-0.25 -0.835,-0.501 -1.336,-0.418 -0.418,0 -0.835,-0.166 -1.169,-0.417 -0.084,-0.084 -0.084,-0.084 -0.167,-0.084 0,0.084 -0.084,0.084 -0.084,0.168 -0.251,1.753 -0.501,3.59 -0.417,5.345 0.083,1.503 0,2.923 0.083,4.343 0,1.086 -0.083,2.255 0,3.34 0.251,2.256 0.167,4.427 0.251,6.682 0.083,1.504 0.083,3.091 0.25,4.594 0.084,1.169 0.167,2.255 0.167,3.424 0,1.671 0.167,3.341 0.083,5.012 0,0.668 0,1.336 0.084,2.004 0.251,1.504 0.084,3.09 0.167,4.594 0.084,1.503 0.251,3.006 0.251,4.509 0,0.168 0,0.419 -0.167,0.585 -0.251,0 -0.585,-0.084 -0.919,-0.084 -0.668,-0.082 -1.336,0.168 -2.005,0.335 -0.167,0.083 -0.417,0.167 -0.584,0.083 -0.251,0 -0.334,0.168 -0.585,0.251 -0.417,-0.167 -1.002,0 -1.503,-0.083 -0.501,0 -1.086,0.083 -1.587,0.25 -0.418,0.083 -0.835,0 -1.253,0 -0.167,0.083 -0.25,0.083 -0.417,0.083 -0.084,0 -0.168,0.084 -0.251,0.168 -0.25,-0.335 -0.585,-0.168 -0.835,-0.084 -0.418,0.167 -0.919,0.167 -1.336,0.334 -0.502,0.083 -1.086,0.251 -1.587,0.418 -0.168,0.083 -0.251,0.25 -0.418,0.333 -0.418,0.084 -0.751,0.419 -1.17,0.585 -0.5,0.334 -0.918,0.752 -1.336,1.254 -0.417,0.584 -0.834,1.169 -1.085,1.837 -0.168,0.333 -0.251,0.668 -0.668,0.918 1.419,0.334 2.839,0.585 4.176,0.752 0.417,0.083 0.835,0.167 1.336,0.251 0.084,0 0.167,0 0.25,0.083 1.003,0.084 2.005,0.25 3.091,0.334 0.584,0.167 1.253,0.167 1.837,0.084 0.836,0 1.504,0.167 2.339,0.25 h 2.839 c 0.585,0 1.086,0.084 1.671,0.168 1.002,0.166 2.004,0 3.09,0 0.835,0 1.754,0.082 2.673,0.166 0.5,0.084 1.086,0.084 1.67,0.084 1.002,0.083 2.005,0.167 3.007,0.251 1.086,0.083 2.171,0.25 3.173,0.25 1.504,0.083 2.924,0.167 4.427,0.083 1.086,-0.083 2.172,-0.083 3.258,-0.25 0.751,-0.083 1.419,-0.251 2.171,-0.334 0.418,-0.084 0.918,-0.168 1.337,-0.168 0.166,0 0.333,0 0.584,-0.082 -0.084,-0.335 -0.084,-0.752 0,-1.087 0.084,-0.25 0.167,-0.501 0.167,-0.751 0,-0.418 -0.083,-0.752 -0.167,-1.086 -0.084,-0.251 -0.084,-0.501 0.084,-0.752 0.083,-0.251 0.083,-0.501 0,-0.751 -0.168,-0.168 -0.168,-0.334 -0.168,-0.585 0.084,-0.334 0,-0.585 0,-0.835 -0.167,-0.418 -0.334,-0.835 -0.417,-1.253 0,-0.501 -0.251,-0.752 -0.585,-1.169 -0.417,0.083 -0.835,-0.335 -1.336,-0.417 -0.585,-0.168 -1.086,-0.419 -1.754,-0.168 -0.251,0.084 -0.501,0.084 -0.668,0.084 -0.752,-0.084 -1.42,0.084 -2.172,-0.084 -0.585,-0.083 -1.169,0.084 -1.837,0 -0.919,-0.083 -1.921,-0.083 -2.924,-0.167 -0.834,-0.084 -1.67,-0.334 -2.505,-0.334 -0.501,0 -1.086,0.083 -1.587,0 -0.585,-0.167 -0.919,-0.501 -0.919,-1.086 0,-0.501 0.084,-1.002 0.084,-1.503 -0.084,-0.835 0.084,-1.67 0.084,-2.506 -0.084,-0.752 0,-1.42 0.083,-2.172 0.083,-0.501 0.167,-0.918 0.083,-1.419 -0.083,-0.334 -0.083,-0.751 -0.083,-1.086 0,-0.585 -0.167,-1.169 -0.167,-1.837 v -0.585 c 0.167,-0.501 -0.084,-1.002 -0.167,-1.503 0,-0.251 0,-0.585 0.083,-0.919 0.084,-0.501 -0.167,-1.002 -0.083,-1.503 0,-0.668 -0.084,-1.253 0,-1.838 0.083,-0.334 0.083,-0.585 0,-0.835 0,-0.752 0,-1.42 0.083,-2.088 0.084,-0.167 0.084,-0.418 0.084,-0.584 -0.167,-0.669 -0.084,-1.42 0,-2.089 0,-0.083 0.084,-0.167 0.084,-0.167 -0.335,-0.835 -0.084,-1.587 -0.084,-2.422 -0.084,-0.501 -0.084,-1.086 -0.084,-1.67 v -0.168 c -0.25,-0.751 -0.25,-1.502 -0.334,-2.254 0,-0.919 0.084,-1.837 -0.166,-2.756 -0.168,-0.669 -0.251,-1.42 -0.168,-2.089 0,-0.5 0,-0.919 -0.167,-1.419 -0.25,-0.501 -0.25,-1.17 -0.417,-1.754 -0.084,-0.335 -0.168,-0.668 -0.251,-1.003 -0.417,-0.166 -0.585,-0.584 -0.836,-0.918" /></g><g
           transform="translate(178.6763,106.1087)"
           id="g36"><path
             id="path38"
             style="fill:#e9e9e9;fill-opacity:1;fill-rule:nonzero;stroke:none"
             d="M 0,0 C -0.173,-0.007 -0.292,0.092 -0.456,-0.123 -0.275,-0.324 -0.164,-0.215 0,0 m -1.743,0.344 c -0.102,-0.317 -0.04,-0.418 0.079,-0.518 0.23,0.01 0.464,-0.084 0.699,-0.179 0.115,0.005 0.164,0.215 0.094,0.525 -0.293,0.091 -0.584,0.184 -0.872,0.172 M 8.759,2.76 C 8.923,2.975 8.857,3.18 8.786,3.49 8.627,3.171 8.578,2.961 8.759,2.76 M 6.757,5.176 C 6.646,5.068 6.659,4.755 6.61,4.546 6.672,4.444 6.739,4.238 6.739,4.238 6.813,3.825 6.645,3.714 6.716,3.404 6.777,3.302 6.777,3.302 6.839,3.201 6.95,3.309 7.065,3.314 7.167,3.631 6.919,4.037 7.177,4.777 6.757,5.176 M 6.788,9.969 C 6.854,9.763 6.916,9.662 7.027,9.77 7.071,10.085 7.062,10.293 6.93,10.703 6.709,10.487 6.664,10.172 6.788,9.969 m 0.271,1.782 c 0.018,-0.416 0.039,-0.936 0.283,-1.238 0.098,0.42 0.089,0.628 0.018,0.937 -0.066,0.206 -0.132,0.412 -0.301,0.301 M 9.1,2.878 C 8.994,2.665 8.949,2.351 8.958,2.144 8.338,1.805 7.577,2.086 7.231,0.717 6.939,0.809 6.647,0.901 6.412,0.996 6.342,1.306 6.329,1.617 6.156,1.61 5.988,1.499 6.116,1.192 6.006,1.083 5.726,0.863 5.43,1.059 5.195,1.154 4.788,1.241 4.386,1.224 3.988,1.104 3.647,0.985 3.301,0.971 2.952,1.06 2.549,1.044 2.209,0.925 1.806,0.908 1.404,0.892 1.009,0.667 0.553,0.543 0.447,0.33 0.341,0.118 0.292,-0.092 c -0.16,-0.32 -0.023,-0.834 -0.364,-0.953 -0.177,0.097 -0.358,0.298 -0.597,0.496 -0.456,-0.122 -0.982,0.063 -1.455,0.356 -0.358,0.298 -0.703,0.284 -1.102,0.163 -0.345,-0.014 -0.69,-0.029 -1.04,0.061 C -4.381,0.026 -4.438,0.024 -4.492,-0.083 -4.593,-0.4 -4.359,-0.494 -4.404,-0.808 L -4.461,-0.81 c -0.69,-0.029 -1.332,0.152 -2.026,0.227 -0.465,0.085 -0.872,0.172 -1.279,0.26 -0.407,0.087 -0.752,0.073 -1.159,0.16 -0.527,0.186 -1.044,0.164 -1.619,0.14 -0.518,-0.021 -1.044,0.165 -1.567,0.248 -0.234,0.094 -0.468,0.189 -0.628,-0.131 -0.35,0.09 -0.535,0.395 -0.778,0.697 -0.115,-0.005 -0.231,-0.01 -0.341,-0.118 -0.235,0.094 -0.358,0.298 -0.477,0.397 -0.412,0.191 -0.793,-0.346 -1.16,0.16 -0.283,-0.116 -0.509,-0.23 -0.739,-0.239 -0.057,-0.003 -0.115,-0.005 -0.173,-0.007 -0.597,0.495 -1.176,0.575 -1.8,0.341 -0.341,-0.119 -0.403,-0.017 -0.72,0.699 -0.355,0.194 -0.757,0.177 -1.16,0.16 -0.23,-0.009 -0.513,-0.126 -0.743,-0.135 -0.23,-0.01 -0.403,-0.017 -0.65,0.39 0.469,-0.189 0.801,0.138 1.203,0.154 0.346,0.015 0.748,0.031 1.089,0.15 -0.362,0.401 -0.884,0.484 -1.132,0.889 -0.296,0.197 -0.46,-0.019 -0.69,-0.028 -0.12,0.099 0.045,0.314 -0.017,0.416 -0.199,0.616 -0.478,0.396 -0.704,0.284 -0.716,0.594 -1.326,1.402 -2.038,1.893 0.341,0.119 0.584,-0.184 0.876,-0.275 -0.132,0.41 -0.318,0.715 -0.278,1.133 -0.185,0.305 -0.353,0.194 -0.473,0.293 -0.424,0.503 -0.68,1.117 -0.941,1.836 0.054,0.106 0.107,0.212 0.16,0.319 -0.235,0.094 -0.362,0.402 -0.495,0.812 0.032,0.626 -0.003,1.458 -0.197,1.972 -0.273,1.03 -0.374,2.067 -0.533,3.102 -0.246,1.76 -0.204,3.533 -0.163,5.305 0.056,2.814 0.351,5.43 0.817,8.054 0.228,1.467 0.57,2.94 1.036,4.209 0.257,0.74 0.514,1.48 0.772,2.219 0.527,1.168 1.183,2.029 1.839,2.889 0.549,0.648 1.098,1.296 1.709,1.842 0.89,0.766 1.842,1.431 2.737,2.094 0.611,0.545 1.288,0.886 1.912,1.12 1.191,0.467 2.32,1.034 3.519,1.292 2.341,0.514 4.753,0.719 7.169,0.819 0.748,0.031 1.496,0.062 2.243,0.094 0.863,0.035 1.784,0.074 2.708,0.008 1.164,-0.263 2.31,-0.111 3.469,-0.272 1.385,-0.046 2.713,-0.095 4.102,-0.246 0.58,-0.079 1.159,-0.159 1.743,-0.344 0.292,-0.092 0.567,0.232 0.92,0.039 C 10.828,43.05 10.835,41.488 10.551,40.018 10.466,39.285 10.386,38.449 10.243,37.714 10.021,36.142 9.529,35.497 8.608,35.459 8.153,35.336 7.581,35.208 7.064,35.186 6.32,35.051 5.511,35.121 4.767,34.986 4.019,34.955 3.267,35.028 2.586,34.791 1.789,34.549 1.037,34.622 0.302,34.28 -0.15,34.052 -0.672,34.135 -1.128,34.012 -1.645,33.99 -2.163,33.969 -2.677,33.843 c -0.23,-0.01 -0.46,-0.019 -0.69,-0.029 -0.756,0.177 -1.495,-0.062 -2.234,-0.301 -0.399,-0.121 -0.793,-0.345 -1.204,-0.155 -0.235,0.095 -0.513,-0.124 -0.744,-0.134 -0.788,-0.45 -1.655,-0.382 -2.452,-0.623 -0.686,-0.133 -1.319,-0.159 -2,-0.395 -0.456,-0.124 -1.036,-0.043 -1.553,-0.065 -0.341,-0.119 -0.748,-0.031 -1.08,-0.358 -0.226,-0.114 -0.407,0.087 -0.575,-0.024 -0.39,-0.329 -0.788,-0.45 -1.121,-0.775 -0.389,-0.329 -0.726,-0.552 -1.12,-0.776 -0.894,-0.663 -1.78,-1.533 -2.674,-2.195 -0.111,-0.109 -0.218,-0.321 -0.328,-0.43 -0.758,-1.177 -1.524,-2.147 -2.039,-3.626 -0.311,-0.846 -0.502,-1.792 -0.631,-2.839 -0.036,-0.522 -0.125,-1.15 -0.037,-1.875 0.366,-0.507 0.795,-1.113 1.273,-1.511 1.251,-0.988 2.547,-1.663 3.891,-2.129 2.168,-0.847 4.309,-1.07 6.508,-1.291 0.637,-0.078 1.226,-0.365 1.858,-0.339 0.465,-0.085 0.987,-0.168 1.505,-0.146 0.517,0.022 1.035,0.043 1.562,-0.144 0.229,0.01 0.46,0.02 0.69,0.029 0.743,0.135 1.442,-0.044 2.141,-0.224 0.288,0.012 0.571,0.128 0.921,0.039 0.809,-0.07 1.619,-0.14 2.486,-0.209 1.102,-0.162 2.129,0.089 3.221,0.134 0.576,0.024 1.151,0.048 1.735,-0.136 0.349,-0.09 0.752,-0.073 1.101,-0.163 0.178,-0.097 0.358,-0.297 0.478,-0.396 0.235,-0.094 0.341,0.119 0.513,0.126 0.239,-0.199 0.522,-0.083 0.716,-0.596 0.173,0.007 0.164,0.215 0.16,0.319 0.275,0.325 0.514,0.126 0.752,-0.073 0.889,-0.587 1.68,-1.596 2.312,-2.923 0,0 0.004,-0.105 0.066,-0.206 C 10.624,9.191 10.451,9.184 10.349,8.867 10.145,8.233 9.94,7.6 9.741,6.863 9.948,6.038 9.691,5.299 9.836,4.576 9.787,4.365 9.672,4.36 9.614,4.358 9.442,4.351 9.433,4.559 9.367,4.765 9.318,4.554 9.265,4.448 9.212,4.341 9.225,4.029 9.402,3.933 9.357,3.618 9.184,3.611 9.061,3.814 8.893,3.703 8.942,3.914 9.171,3.923 9.15,4.443 9.031,4.542 8.956,4.955 8.775,5.156 8.677,4.736 8.813,4.22 8.711,3.904 8.831,3.805 8.835,3.701 8.893,3.703 8.963,3.393 8.976,3.082 9.1,2.878" /></g><g
           transform="translate(216.5171,149.0399)"
           id="g40"><path
             id="path42"
             style="fill:#e9e9e9;fill-opacity:1;fill-rule:nonzero;stroke:none"
             d="m 0,0 c -0.161,0.401 -0.643,0.483 -0.802,0.884 0,0.24 0.24,0.401 0.401,0.643 0.884,0 1.688,0.079 2.571,0.24 C 2.492,1.849 2.893,1.849 3.215,1.688 3.455,1.527 3.777,1.446 4.098,1.446 4.42,1.366 4.742,1.366 4.982,1.285 5.385,1.124 5.786,0.884 6.187,0.643 6.59,0 7.152,-0.723 7.393,-1.527 7.635,-2.492 8.036,-3.455 8.276,-4.5 c 0.243,-1.205 0.161,-2.41 0.322,-3.617 0.081,-0.963 0,-2.008 0.081,-3.052 0,-0.243 0,-0.483 -0.081,-0.725 -0.322,-1.045 -0.322,-2.169 -0.562,-3.213 -0.161,-0.965 -0.322,-1.849 -0.562,-2.732 -0.242,-1.206 -0.161,-2.411 -0.403,-3.616 v -0.161 c 0.161,-1.126 0,-2.25 0,-3.294 0,-0.564 0.081,-1.047 0.161,-1.527 0,-0.483 -0.08,-0.965 -0.161,-1.448 -0.079,-0.643 0,-1.366 -0.159,-2.009 -0.081,-0.159 -0.081,-0.24 0,-0.401 0.08,-0.805 0,-1.688 -0.161,-2.572 -0.081,-0.482 -0.081,-0.965 -0.161,-1.447 -0.081,-1.206 -0.081,-2.49 -0.242,-3.696 0,-0.401 0,-0.804 -0.079,-1.205 0,-0.804 -0.082,-1.688 -0.483,-2.492 -0.161,-0.322 -0.161,-0.802 -0.401,-1.124 -0.161,-0.403 -0.322,-0.723 -0.725,-0.965 -0.24,-0.161 -0.401,-0.401 -0.562,-0.643 -0.16,-0.322 -0.401,-0.562 -0.643,-0.802 -0.802,-0.644 -1.366,-1.367 -1.928,-2.25 -0.161,-0.082 -0.322,-0.082 -0.562,0 -0.482,1.606 -1.527,2.972 -1.849,4.66 -0.321,1.446 -0.401,2.812 -0.321,4.259 0.081,2.25 0.242,4.5 0.242,6.75 v 3.616 c -0.081,1.848 -0.081,3.697 0.079,5.546 0,0.321 0,0.641 -0.16,0.802 -0.241,0.161 -0.402,0.081 -0.562,0.081 -0.884,-0.242 -1.768,-0.321 -2.653,-0.321 -0.322,0 -0.642,-0.082 -0.963,-0.161 -0.805,-0.161 -1.688,-0.241 -2.492,-0.401 -0.723,-0.243 -1.446,-0.322 -2.169,-0.483 -0.724,-0.242 -1.527,-0.242 -2.251,-0.161 -0.241,0 -0.481,0.08 -0.723,0 -0.24,-0.161 -0.24,-0.482 -0.24,-0.723 v -0.643 c -0.161,-1.366 -0.562,-2.653 -0.805,-4.019 -0.161,-0.641 -0.161,-1.364 0.082,-2.168 -0.082,-0.161 -0.161,-0.403 -0.243,-0.723 -0.079,-0.403 -0.16,-0.804 0,-1.287 0.082,-0.24 0,-0.482 0,-0.723 -0.16,-0.16 -0.24,-0.321 -0.321,-0.482 -0.08,-0.483 0.403,-1.126 -0.322,-1.448 -0.079,-1.124 -0.161,-2.249 -0.24,-3.294 0,-0.401 -0.08,-0.723 -0.322,-1.044 -0.24,-0.401 -0.401,-0.805 -0.401,-1.366 0.08,-0.562 -0.081,-1.045 -0.643,-1.367 0,-0.722 -0.562,-1.205 -0.483,-1.848 -0.723,-0.642 -1.366,-1.285 -1.688,-2.169 -0.562,-0.16 -0.722,-0.804 -1.366,-0.883 -0.161,-0.242 -0.24,-0.483 -0.319,-0.644 -0.161,-0.242 -0.404,-0.16 -0.644,-0.321 -0.081,-0.082 -0.081,-0.241 -0.161,-0.322 -0.242,-0.079 -0.482,-0.161 -0.722,-0.161 -0.082,0.082 -0.161,0.161 -0.161,0.242 -0.322,0.884 -0.644,1.847 -0.725,2.812 -0.079,1.124 -0.24,2.331 -0.24,3.455 0,0.723 -0.08,1.448 -0.08,2.25 0.08,0.965 0,2.009 0,2.975 0.08,1.606 0,3.214 0.161,4.739 0.159,0.886 0.24,1.77 0.32,2.572 0,0.242 0.081,0.403 0.242,0.564 -0.242,0.641 -0.081,1.205 0.24,1.688 -0.161,0.319 -0.161,0.722 -0.079,1.044 0.24,2.089 0.24,4.259 0.079,6.428 v 1.767 c -0.079,2.974 -0.079,5.867 -0.161,8.84 0,1.688 0.082,3.376 0.161,5.063 0.082,1.686 0.243,3.374 0.322,5.062 v 1.126 c -0.161,0.322 -0.322,0.48 -0.483,0.641 0,0.242 0.082,0.322 0.243,0.564 0.723,0 1.366,0.161 2.089,0.24 1.445,0.243 2.972,0.243 4.499,0 0.804,-0.16 1.527,-0.562 2.01,-1.205 0.482,-0.482 0.562,-1.124 0.643,-1.767 0.079,-0.403 0,-0.884 0.161,-1.287 0.079,-0.24 0,-0.401 0,-0.641 -0.322,-1.448 -0.403,-2.975 -0.564,-4.42 -0.079,-0.483 -0.079,-1.045 -0.079,-1.527 0,-0.243 0,-0.562 -0.161,-0.805 0.161,-1.044 0.161,-2.009 0.161,-3.053 0,-0.562 0,-1.206 0.16,-1.847 0.161,-0.725 0.161,-1.527 0.161,-2.331 -0.081,-0.723 0,-1.527 0,-2.25 0.322,-0.322 0.642,-0.322 0.963,-0.242 2.25,0.403 4.581,0.885 6.912,1.286 1.124,0.161 2.169,0.08 3.295,0 0.24,-0.081 0.482,-0.16 0.883,0 C -0.161,-11.33 0.161,-5.625 0,0" /></g><g
           transform="translate(143.5467,124.9359)"
           id="g44"><path
             id="path46"
             style="fill:#e9e9e9;fill-opacity:1;fill-rule:nonzero;stroke:none"
             d="m 0,0 c 0.086,-0.086 0.086,-0.169 0.086,-0.339 0.083,-0.085 0.167,-0.085 0.336,-0.169 0,0.084 0.086,0.084 0.169,0.169 -0.083,0.084 -0.169,0.084 -0.252,0.17 0,0 0.083,0.083 0,0.253 C 0.253,0.169 0.169,0.084 0,0 m -5.751,-24.274 c 0,-0.339 0.085,-0.339 0.424,-0.17 -0.086,0.339 -0.255,0.084 -0.424,0.17 m -1.522,21.906 c -0.086,0 -0.255,0 -0.424,0.084 -0.084,0 -0.169,-0.084 -0.169,-0.17 0.169,0 0.085,-0.169 0.169,-0.252 h 0.338 c 0.086,0.083 0.17,0.169 0.086,0.338 M -8.966,-3.3 c 0.086,0.169 0.17,0.339 0.339,0.255 0.085,0.084 0,0.169 0.085,0.169 0,0 0.084,0 0.17,-0.085 0,0.255 0.253,0.255 0.338,0.424 -0.255,0.336 -0.255,-0.086 -0.424,-0.086 -0.169,0 -0.169,0.086 -0.338,0.086 -0.084,0 -0.253,0.083 -0.339,-0.086 0.255,-0.083 0.086,-0.338 0.169,-0.677 m 0,-22.243 c 0.086,0.084 0.17,0.169 0.255,0.253 -0.085,0.086 -0.085,0.255 -0.169,0.338 -0.169,-0.083 -0.169,-0.252 -0.255,-0.338 -0.084,0 -0.084,0 -0.169,0.086 0,0.169 0.085,0.252 0,0.422 -0.168,-0.17 -0.506,0.085 -0.675,-0.17 0.083,-0.169 0.252,-0.083 0.252,-0.252 0.086,0 -0.083,-0.086 0,-0.17 0.255,-0.085 0.508,-0.085 0.761,-0.169 m -1.607,22.582 c 0.339,-0.17 0.594,-0.17 0.932,0.085 -0.424,0.339 -0.763,0.339 -0.932,-0.085 m -0.506,-22.243 c 0.084,-0.17 0.17,-0.339 0.422,-0.17 0,0.084 0,0.17 -0.083,0.339 -0.169,0 -0.255,-0.086 -0.339,-0.169 m -3.638,10.57 h -0.253 c -0.084,0.339 0,0.594 0.086,0.847 0,-0.253 0.083,-0.592 0.167,-0.847 m -4.567,-3.298 c 0.086,0 0.255,-0.169 0.425,-0.083 0,0.083 0,0.169 -0.086,0.253 -0.169,-0.084 -0.339,0.169 -0.592,0.169 0.084,-0.086 0.17,-0.169 0.253,-0.339 m -0.422,2.115 c -0.086,0.17 -0.169,0.339 -0.338,0.508 -0.086,-0.085 -0.17,-0.255 -0.086,-0.424 0.086,-0.084 0.255,-0.084 0.424,-0.084 m -3.045,17.508 c 0.169,0.085 0.253,0.169 0.253,0.422 -0.084,0.086 -0.169,0.086 -0.253,0.086 -0.169,-0.17 -0.086,-0.339 0,-0.508 m -2.537,-15.817 h 0.422 c -0.169,0.17 -0.083,0.255 -0.169,0.424 -0.253,0 -0.253,-0.254 -0.253,-0.424 m -0.592,26.895 c -0.085,0.17 -0.169,0.17 -0.254,0.086 0.085,-0.169 -0.084,-0.338 -0.084,-0.508 0.084,-0.083 0.084,-0.083 0.253,0 -0.169,0.17 0.085,0.339 0.085,0.422 M 0.508,-22.753 c 0.083,0 0.083,0.169 0.169,0.169 0.084,0 0,-0.169 0.084,-0.169 -0.675,-0.591 -1.269,-1.099 -2.113,-1.269 0.083,0.086 0.083,0.17 0.167,0.339 -0.253,0.086 -0.506,0.086 -0.675,0.169 0,-0.169 0.084,-0.169 0.169,-0.253 0,-0.085 -0.169,-0.169 -0.085,-0.255 0.169,0 0.085,0.17 0.169,0.086 0.169,0 0.169,0 0.255,-0.086 -0.086,-0.083 -0.169,-0.169 -0.339,-0.169 -0.424,-0.083 -0.93,-0.169 -1.354,-0.336 -0.084,-0.086 -0.339,-0.086 -0.508,0 -0.253,-0.255 -0.844,-0.425 -1.099,-0.255 -0.084,-0.084 -0.169,-0.253 -0.339,-0.17 -0.169,0.255 -0.169,0.255 -0.422,0.255 -0.083,0 0,-0.085 0,-0.169 0,0 0,-0.086 0.086,-0.086 -0.255,-0.338 -0.508,0 -0.677,-0.169 -0.255,-0.083 -0.425,-0.253 -0.594,0 -0.253,0.086 -0.167,-0.169 -0.336,-0.169 -0.339,0.086 -0.594,-0.169 -0.932,-0.169 -0.084,0.338 -0.168,0.424 -0.506,0.507 0.083,-0.252 0.253,-0.338 0.253,-0.507 -0.423,-0.17 -0.847,-0.339 -1.269,-0.17 -0.253,-0.083 -0.508,-0.253 -0.761,0 -0.338,-0.253 -0.677,0 -0.93,0.086 -0.085,0.084 -0.169,0.169 -0.255,0.339 -0.083,0.083 -0.169,0 -0.253,0 -0.085,-0.086 0.084,-0.17 0.084,-0.339 -0.084,-0.169 -0.169,-0.169 -0.253,-0.169 -0.169,0 -0.086,0.169 -0.169,0.253 -0.169,0.255 -0.422,-0.084 -0.677,0.085 -0.17,-0.085 -0.17,-0.255 -0.339,-0.255 -0.083,0 -0.169,0.255 -0.338,0.255 -0.084,0 -0.168,-0.169 -0.423,0 0,0.084 -0.083,0.339 -0.252,0.339 -0.086,-0.169 0,-0.255 -0.086,-0.339 -0.592,0 -1.269,0.084 -1.86,0.339 -0.086,0 -0.169,0 -0.169,-0.086 -0.17,0.086 -0.423,0.086 -0.592,0.086 -0.086,0.169 -0.086,0.253 -0.169,0.338 -0.169,0.084 -0.255,-0.085 -0.339,-0.085 -0.255,0 -0.422,0.085 -0.422,0.422 -0.169,-0.253 -0.255,-0.167 -0.424,-0.084 -0.761,0.339 -1.522,0.761 -2.282,1.269 -0.425,0.338 -0.847,0.761 -1.269,1.185 -0.424,0.422 -0.763,0.844 -1.101,1.268 -0.422,0.592 -0.761,1.1 -1.1,1.775 -0.422,0.846 -0.76,1.862 -1.099,2.875 -0.422,1.185 -0.761,2.37 -1.014,3.553 -0.085,0.678 -0.169,1.269 -0.254,1.946 -0.17,1.016 -0.253,2.115 -0.423,3.214 0,0.592 -0.085,1.1 -0.085,1.691 -0.084,0.677 -0.17,1.438 -0.17,2.115 -0.083,1.016 -0.252,2.115 -0.252,3.214 v 0.678 c 0,0.252 -0.084,0.422 0.085,0.591 -0.338,0.677 -0.085,1.438 -0.169,2.115 0,0.084 0.084,0.167 0.169,0.337 -0.169,0.507 -0.169,1.015 -0.169,1.523 0,0.846 0.084,1.691 0.169,2.537 0,0.761 0.084,1.522 0.253,2.285 0.084,0.844 0.253,1.69 0.339,2.537 0.169,1.183 0.422,2.368 0.591,3.55 0.086,0.508 0.169,0.93 0.253,1.438 0,0.425 0.169,0.847 0.255,1.269 0.253,1.268 0.508,2.537 0.93,3.806 0.422,1.268 0.93,2.453 1.691,3.553 0.424,0.677 0.763,1.268 1.354,1.86 0.422,0.338 0.93,0.507 1.521,0.593 0.763,0 1.608,0.084 2.368,-0.169 0.339,-0.086 0.763,-0.086 1.102,-0.086 0.505,-0.083 1.013,-0.253 1.521,-0.253 0.422,-0.085 0.761,-0.338 1.099,-0.338 h 0.17 c 0.677,-0.422 1.438,-0.422 2.115,-0.677 0.169,-0.084 0.338,0 0.508,0 0.252,-0.17 0.591,-0.084 0.93,-0.084 0.844,0.084 1.776,0.084 2.62,0.084 h 2.199 c 0.594,0 1.269,-0.17 1.862,-0.253 h 0.169 c 0.339,-0.423 0.845,-0.255 1.353,-0.339 0.169,0 0.424,0 0.591,-0.084 0.086,-0.169 0.169,-0.254 0.169,-0.424 -0.083,-0.169 -0.253,-0.338 -0.253,-0.591 -0.169,-0.086 -0.252,-0.086 -0.338,-0.255 -0.169,-0.253 -0.422,-0.592 -0.761,-0.506 0,-0.169 0.169,-0.086 0.169,-0.255 -0.169,-0.084 -0.338,-0.084 -0.507,-0.169 -0.592,-0.675 -1.86,-1.777 -2.285,-1.777 -0.169,-0.167 -0.336,-0.253 -0.591,-0.336 -0.422,-0.339 -1.016,-0.424 -1.522,-0.508 -0.085,0 -0.255,-0.086 -0.255,-0.169 -0.169,-0.086 -0.338,-0.17 -0.507,-0.17 -0.337,0 -0.676,-0.169 -0.93,-0.422 -0.17,-0.085 -0.339,-0.169 -0.508,-0.169 -0.675,-0.255 -1.353,-0.508 -2.03,-0.846 -0.422,-0.17 -0.844,-0.423 -1.352,-0.678 -0.169,-0.083 -0.424,-0.169 -0.593,-0.169 -0.337,0 -0.592,-0.169 -0.845,-0.253 -0.169,0 -0.255,-0.085 -0.255,-0.169 -0.083,-0.253 -0.169,-0.422 -0.422,-0.508 0.084,-0.253 0.084,-0.508 -0.083,-0.761 -0.086,-0.255 -0.086,-0.507 -0.17,-0.846 -0.169,-0.591 -0.255,-1.269 -0.338,-1.86 -0.086,-0.508 -0.17,-1.099 -0.17,-1.691 -0.169,-0.169 -0.169,-0.424 -0.169,-0.677 0,-0.508 0,-0.93 -0.086,-1.438 v -0.255 c 0,-0.336 0,-0.675 -0.169,-1.013 0,-0.086 -0.083,-0.17 0,-0.255 0.086,-0.339 0,-0.675 -0.083,-1.014 -0.084,-0.255 -0.084,-0.424 0,-0.677 -0.084,-0.592 -0.084,-1.269 -0.084,-1.86 -0.086,-0.086 -0.086,-0.169 -0.086,-0.255 -0.253,-0.339 -0.169,-0.761 -0.169,-1.183 0,-0.339 -0.084,-0.677 -0.084,-1.016 0,-0.508 -0.085,-0.93 0,-1.268 -0.085,-0.17 -0.255,0 -0.338,-0.17 0,0 0,-0.083 0.083,-0.083 0.425,-0.424 0.93,-0.169 1.438,-0.086 0.425,0 0.761,0.169 1.1,0.086 0.424,0.253 0.846,0.253 1.268,0.253 0.424,0.085 0.847,0.169 1.269,0.253 0.932,0.169 1.776,0.507 2.706,0.677 0.339,0 0.677,0.085 1.1,0.169 0.507,0.169 1.101,0.255 1.607,0.339 0.677,0.083 1.354,0.169 2.031,0.253 1.269,0.085 2.621,0.085 3.889,0 C 0.508,3.298 1.354,3.212 2.199,3.129 H 2.876 C 3.129,3.045 3.214,2.959 3.384,2.79 3.298,2.451 3.298,2.199 3.129,1.944 2.792,1.86 2.623,1.607 2.368,1.438 2.284,1.269 2.368,1.183 2.368,1.014 2.284,0.93 2.368,0.675 2.115,0.591 1.946,0.506 1.776,0.591 1.607,0.422 1.521,0.339 1.607,0.169 1.438,0.084 1.354,0 1.099,0 0.93,-0.255 0.761,-1.269 -0.253,-1.524 -1.185,-1.776 h -0.167 l -0.086,0.083 c -0.169,-0.083 -0.169,-0.253 -0.338,-0.338 -0.423,0.085 -0.845,-0.337 -1.353,-0.17 -0.169,-0.422 -0.507,-0.422 -0.846,-0.422 -0.339,0 -0.591,-0.169 -1.016,-0.253 -0.083,0.17 -0.253,0.084 -0.505,0.084 0.083,0.255 0.336,0.169 0.505,0.169 0.086,0.169 -0.083,0.339 -0.169,0.508 -0.084,-0.086 -0.167,-0.339 -0.336,-0.253 -0.086,-0.169 -0.086,-0.338 -0.17,-0.508 -0.338,0.084 -0.085,0.253 -0.169,0.339 -0.169,0.169 -0.255,-0.086 -0.424,-0.086 -0.084,0 0,0.169 -0.084,0.255 -0.086,-0.086 -0.169,-0.086 -0.338,-0.086 0,-0.338 -0.423,-0.422 -0.592,-0.677 -0.338,0 -0.593,-0.083 -0.93,-0.169 -0.508,-0.169 -0.932,-0.253 -1.354,-0.422 -0.17,-0.084 -0.339,0 -0.508,0.169 -0.592,-0.169 -1.183,0.169 -1.86,0 -0.086,-0.083 -0.422,0.084 -0.592,-0.083 -0.255,0 -0.255,0.167 -0.338,0.167 -0.169,0 -0.169,-0.167 -0.339,-0.167 -0.085,-0.086 -0.169,0 -0.338,0.083 -0.17,-0.083 -0.253,-0.253 -0.508,-0.083 0,0 0.086,0.083 0,0.167 0,0.085 -0.169,0.085 -0.253,0.169 -0.086,-0.084 -0.169,-0.084 -0.169,-0.169 -0.422,0.085 -0.761,-0.167 -1.185,0 -0.084,0 -0.084,0.169 -0.253,0.085 0,-0.085 -0.169,-0.252 -0.253,-0.422 -0.169,-0.085 -0.424,0 -0.508,-0.169 0.084,-0.169 0.169,-0.086 0.339,-0.169 0.169,-0.339 -0.086,-0.763 0.083,-1.1 0.086,-0.085 0.253,-0.085 0.253,-0.255 0,-0.677 0.086,-1.268 0.169,-1.521 0,-0.169 -0.169,-0.255 -0.083,-0.424 0.253,-0.337 0.169,-0.675 0.083,-1.1 0.339,-0.252 0.255,-0.591 0.339,-0.93 -0.084,-0.169 -0.169,-0.169 -0.253,-0.338 0,-0.508 0.508,-0.93 0.592,-1.438 -0.17,-0.084 -0.339,0 -0.508,-0.084 0.085,-0.169 0.169,0 0.255,-0.085 0.083,-0.17 0.338,-0.253 0.422,-0.422 -0.253,-0.508 0.086,-1.1 -0.169,-1.608 0.085,-0.085 0.255,-0.169 0.255,-0.338 -0.255,-0.084 -0.17,-0.339 -0.425,-0.508 0.086,-0.339 0.339,-0.677 0.17,-1.014 0.255,-0.085 0.507,-0.255 0.76,-0.424 -0.083,-0.253 0,-0.591 -0.169,-0.844 -0.084,0.253 0,0.591 -0.253,0.76 -0.083,0 -0.169,0.084 -0.253,0 -0.085,-0.085 -0.085,-0.169 0,-0.169 0.253,-0.169 0.253,-0.508 0.422,-0.677 0.17,-0.169 0,-0.422 0.084,-0.591 0.169,0 0.086,0.169 0.169,0.252 0.255,-0.252 0.339,-0.507 0.508,-0.844 -0.083,-0.086 -0.083,-0.255 0,-0.424 -0.169,-0.253 -0.338,0 -0.508,-0.084 0,-0.255 0.17,-0.169 0.17,-0.169 0.169,-0.255 0.085,-0.424 0.338,-0.508 0.086,0 0.086,0.169 0.169,0.253 0.086,-0.169 0.17,-0.336 0.339,-0.422 -0.084,-0.339 0.169,-0.592 -0.084,-0.847 0.084,-0.083 0.168,0 0.253,0 0.084,0.086 0,0.339 0.253,0.339 0.086,0 0,-0.169 0.086,-0.253 0.338,-0.086 0.591,-0.424 0.844,-0.591 0.424,-0.255 0.763,-0.255 1.185,-0.255 1.438,0 2.792,0.255 4.145,0.591 1.354,0.339 2.706,0.847 4.06,1.102 1.014,0.252 1.944,0.505 2.874,0.76 0.169,0.084 0.338,0.084 0.508,0.17 0.169,0.083 0.424,0.169 0.593,0 0.167,0.083 0,0.083 0.084,0.252 0.508,0.253 1.099,0.508 1.607,0.847 0.846,0.675 1.691,1.438 2.454,2.198 0.167,0.253 0.252,0.508 0.422,0.847 0.169,-0.255 0.338,-0.508 0.508,-0.677 0.083,-0.086 0.083,-0.255 0,-0.339 -0.17,-0.169 -0.17,-0.338 -0.255,-0.591 0,-0.425 -0.253,-0.763 -0.508,-1.016 -0.167,-0.169 -0.167,-0.339 -0.167,-0.508 0.083,-0.253 -0.17,-0.422 -0.086,-0.675 -0.169,-0.169 -0.339,-0.424 -0.084,-0.677 -0.169,-0.169 -0.338,-0.424 -0.338,-0.591 -0.255,-0.086 -0.508,-0.17 -0.677,-0.339 0,-0.086 0.083,-0.169 0.083,-0.339 0,-0.085 -0.169,-0.255 -0.169,-0.424 -0.675,-0.169 -1.014,-0.761 -1.436,-1.352 -0.169,-0.255 -0.508,-0.422 -0.763,-0.591 -0.169,-0.17 -0.253,-0.17 -0.338,-0.339 -0.506,-0.169 -0.506,-0.169 -0.761,0 0.339,0.253 0.424,0.675 0.846,0.675 0.084,0.169 0.17,0.339 0.253,0.424 -0.338,0.17 -0.422,-0.255 -0.675,-0.169 -0.085,-0.086 0,-0.255 -0.085,-0.339 -0.253,0 -0.508,0 -0.592,-0.252 -0.169,-0.086 -0.169,0.083 -0.255,0 0,-0.17 -0.083,-0.339 -0.336,-0.339 0,0 -0.086,0.084 -0.17,0.084 0,-0.253 0,-0.253 -0.085,-0.339 -0.253,0 -0.422,0 -0.592,-0.084 0,-0.255 0.339,-0.169 0.422,-0.338 0.086,0.169 0.086,0.338 0.17,0.422 0,-0.169 0,-0.253 0.169,-0.339 0.086,0.17 0,0.425 0.086,0.594 0.167,-0.086 0.253,-0.255 0.422,-0.255" /></g><g
           transform="translate(165.4597,189.9789)"
           id="g48"><path
             id="path50"
             style="fill:#24265d;fill-opacity:1;fill-rule:nonzero;stroke:none"
             d="m 0,0 c -0.715,-0.493 1.158,-5.25 11.547,-22.755 6.183,-6.425 13.72,-9.445 19.417,-7.264 6.698,2.566 8.888,11.344 9.512,16.658 1.919,16.33 -5.344,40.229 -18.025,58.468 0.941,-2.745 2.513,-7.474 4.214,-13.43 6.182,-21.648 9.779,-34.864 3.222,-42.205 -0.876,-0.981 -3.403,-3.502 -7.132,-4.076 C 11.661,-16.31 1.435,0.988 0,0" /></g></g></g></g></svg>