<?xml version="1.0" encoding="utf-8"?>
<!-- Generator: Adobe Illustrator 26.0.0, SVG Export Plug-In . SVG Version: 6.00 Build 0)  -->
<svg version="1.1" id="Calque_1" xmlns="http://www.w3.org/2000/svg" xmlns:xlink="http://www.w3.org/1999/xlink" x="0px" y="0px"
	 viewBox="0 0 360.87 252.46" style="enable-background:new 0 0 360.87 252.46;" xml:space="preserve">
<style type="text/css">
	.st0{fill:#EDEDED;}
	.st1{fill:#29235C;}
</style>
<g id="XMLID_366_">
	<g>
		<g>
			<path class="st0" d="M258.73,185.06c-2.21-2.18-3.31-4.93-3.31-8.23c0-3.3,1.1-6.04,3.31-8.23c2.21-2.19,4.98-3.28,8.32-3.28
				s6.11,1.09,8.32,3.28c2.21,2.19,3.31,4.93,3.31,8.23c0,3.3-1.1,6.04-3.31,8.23c-2.21,2.19-4.98,3.28-8.32,3.28
				S260.93,187.25,258.73,185.06z M260.18,170c-1.77,1.79-2.66,4.07-2.66,6.84c0,2.76,0.89,5.04,2.66,6.83
				c1.77,1.79,4.06,2.69,6.86,2.69s5.09-0.9,6.87-2.69c1.77-1.79,2.66-4.07,2.66-6.83c0-2.76-0.89-5.04-2.66-6.84
				c-1.77-1.79-4.06-2.69-6.87-2.69S261.95,168.21,260.18,170z M269.46,183.08l-2.54-4.45h-1.61v4.45h-2.66v-12.49h4.64
				c1.36,0,2.49,0.36,3.4,1.08c0.91,0.72,1.36,1.7,1.36,2.94c0,1.77-0.85,2.97-2.54,3.59l2.97,4.89H269.46z M265.31,176.53h1.73
				c1.52,0,2.29-0.6,2.29-1.79c0-1.2-0.76-1.79-2.29-1.79h-1.73V176.53z"/>
		</g>
	</g>
	<path class="st0" d="M84.48,115.99c0.1,0.3,0.2,0.6,0.3,0.8c-0.2,0.1-0.3-0.1-0.5-0.1c-0.1,0-0.2,0.2-0.4,0.1
		c-0.2-0.1,0-0.3-0.2-0.4c-0.3-0.1-0.6-0.1-0.9,0c0,0.2,0.2,0.1,0.2,0.3c-0.1,0.2-0.2,0.1-0.3,0.1c-0.2-0.1-0.1-0.2-0.3-0.3
		c-0.6-0.1-0.8-0.3-0.8-0.7c-0.1,0-0.1,0-0.2,0.1v0.1c-0.4-0.1,0-0.4-0.1-0.6c-0.2,0-0.2,0.3-0.4,0.4c-0.1-0.1,0-0.2-0.1-0.3
		c-0.1,0.1-0.2,0.2-0.2,0.2c-0.1,0.2,0,0.2,0,0.4c-0.1,0-0.2,0.1-0.4,0.3c0-0.3-0.1-0.5-0.2-0.7c-0.1,0-0.2,0.1-0.3,0
		c0-0.1,0.1-0.2,0-0.3c-0.2,0-0.1,0.3-0.3,0.3c-0.1,0.1-0.2-0.1-0.4,0.1c0.2,0.3,0.7,0,0.9,0.3c-0.5,0.2-2.61-0.2-3.22-0.6
		c-0.1-0.1-0.4,0.1-0.6-0.2c0-0.2,0.3-0.1,0.3-0.3c-0.3-0.2-0.5,0.2-0.8,0.2c-0.2-0.2-0.5-0.3-0.7-0.4c0.1-0.3,0.3-0.3,0.5-0.4
		c0-0.4-0.5,0-0.6-0.4c-0.3,0.3-0.3,0.3-0.2,0.6c-0.6,0-1.01-0.4-1.61-0.6c-0.1-0.1,0.1-0.2,0-0.3c0-0.1-0.1-0.2-0.2-0.2
		c-0.1,0-0.2,0.1-0.3,0.1c-0.5-0.1-1.01-0.3-1.21-0.8c-0.2-0.1-0.3,0.1-0.4,0c-0.4-0.2-0.7-0.5-1.01-0.8c-0.4,0-0.6-0.2-0.9-0.4
		c-0.5-0.3-0.8-0.7-1.31-1.01c-0.3-0.1-0.5-0.4-0.7-0.6c-0.4-0.3-0.8-0.6-1.21-1.01c-0.2-0.3-0.5-0.5-0.8-0.8
		c-0.3-0.3-0.6-0.8-1.01-1.21c-0.2-0.1-0.2-0.4-0.3-0.6c-0.6-0.3-0.9-0.8-1.21-1.31c-0.7-0.9-1.41-1.81-2.01-2.71
		c-0.4-0.8-0.8-1.61-1.21-2.41c-0.7-1.51-1.01-3.01-1.41-4.62c-0.1-0.6-0.2-1.41-0.4-2.01c-0.1-0.8-0.2-1.71-0.3-2.51
		c-0.2-0.8-0.2-1.71-0.3-2.61c-0.1-1.11-0.2-2.31-0.2-3.42c0.1-0.7,0.1-1.41,0.1-2.01c0-1.01,0.1-2.01,0.2-3.02
		c0-0.5,0.2-1.1,0.3-1.71c0.1-0.9,0.5-1.81,0.6-2.81c0.2-0.1,0.2-0.4,0.3-0.6c0.3-1.51,1.11-2.71,1.81-3.92
		c0.4-0.6,0.6-1.21,1.01-1.71c0.5-0.6,0.8-1.41,1.31-2.01c0.2-0.3,0.2-0.7,0.7-0.8c0.3-0.6,0.8-1.01,1.21-1.51
		c0.5-0.7,1.21-1.21,1.81-1.81c0.2-0.2,0.4-0.5,0.8-0.4c0.1-0.1,0.1-0.2,0.2-0.3c0.6-0.5,1.31-0.8,1.81-1.31
		c0.2-0.1,0.1,0.1,0.3,0.1c0-0.1,0-0.3,0.1-0.4c0.2-0.1,0.3-0.4,0.7-0.5c0.8-0.7,1.81-1.31,2.81-1.91c0.4-0.3,0.8-0.6,1.31-0.5
		c0-0.1,0-0.2,0-0.3c0.2-0.1,0.4-0.3,0.6-0.2c1.1-0.5,2.11-1.1,3.11-1.51c0.4-0.3,0.8-0.6,1.41-0.6c0.4-0.4,0.8-0.8,1.51-0.8
		c0.7-0.5,1.61-0.7,2.61-1.01c0.1-0.3,0.6-0.2,0.8-0.5c0.6-0.3,1.31,0,1.81-0.6c0.3-0.2,0.8,0.1,1-0.3c1.81,0,3.32-0.9,5.02-1.41
		c0.7,0.6,1.51,1.01,2.31,1.41c0.4,0.1,0.8,0.3,1.01,0.6c0.5,0.6,1.21,0.9,1.61,1.61c0,0.1,0.1,0.1,0.2,0.2
		c0.6,0.5,1.1,1.11,1.31,1.91c0.2,0.5,0.2,1,0.1,1.51c0,0.2,0,0.3,0,0.5c-0.2,0.4-0.6,0.7-0.9,1.11c-0.6,0.1-0.9,0.5-1.41,0.7
		c-0.6,0.4-1.21,0.9-1.71,1.31c-0.2,0.2-0.5,0.3-0.7,0.4c-0.5,0.4-0.9,0.8-1.31,1.21c-0.3,0.3-0.7,0.7-1.21,0.7
		c-0.3,0.1-0.5,0.4-0.8,0.6c-1.11,0.9-2.21,1.91-3.52,2.61c-0.5,0.3-1.1,0.7-1.61,1.11c-0.1,0.1-0.3,0.2-0.4,0.2
		c-0.2,0.1-0.4,0.1-0.5,0.2c-0.3,0.6-1,0.9-1.41,1.41c-0.2,0.2-0.5,0.3-0.7,0.5c-0.7,0.4-1.51,0.6-1.91,1.21c-0.3,0.1-0.5,0-0.7,0.1
		c-0.3,0.6-0.7,1.1-1.31,1.41c-0.1,0.1-0.2,0.2-0.3,0.3c-0.5,0.5-1,1.11-1.71,1.51c-0.1,0.1-0.1,0.3-0.1,0.4
		c-0.5,0.1-0.6,0.5-0.9,0.8c-1.01,1.01-1.91,2.01-2.61,3.32c-0.3,0.6-0.8,1.11-1.11,1.61c-0.1,0.3-0.3,0.4-0.5,0.5
		c-0.7,1.71-1.41,3.32-2.11,5.02c-0.1,0.1,0,0.2,0,0.4c-0.2,0.1-0.1,0.5-0.4,0.7c0.2,0.6,0.1,1.21-0.1,1.81
		c-0.2,0.9-0.1,1.81-0.2,2.71c-0.1,0.5-0.1,0.8,0,1.31c0,0.1,0,0.3-0.1,0.4c0,0.1,0,0.3,0,0.4c0.1,0.9,0.1,1.81,0.2,2.71
		c0,0.1,0,0.2,0.1,0.3c0.1,0.3,0.1,0.3-0.2,0.6c0.1,0,0.2,0.1,0.2,0.1s0,0,0-0.1c0.1,0.7,0.1,1.31,0.2,1.81
		c0.2,0.9,0.2,1.81,0.5,2.71c0.3,0.9,0.5,2.01,1.01,2.81c0.3,0.5,0.5,1.1,1.01,1.51c0.5,0.5,0.9,1.01,1.51,1.31
		c0.4,0.2,0.7,0.5,1.01,0.7c1.1,0.7,2.21,0.8,3.42,0.7c1.01,0,2.01-0.1,3.02-0.3c0.6-0.2,1.31-0.4,1.91-0.6
		c1.81-0.5,3.32-1.41,4.82-2.31c1.81-1.11,3.32-2.31,5.02-3.52c0.2-0.2,0.3-0.3,0.5-0.5c0.4-0.3,0.4-0.4,0.9-0.5
		c0.1-0.5,0.5-0.7,1.11-0.7c0.5,0,1.21-0.1,1.61-0.6c-0.6,0.4-1.21,0.3-1.81,0.3c0.4-0.3,0.7-0.8,1.31-1.1c0.1-0.3,0.4-0.5,0.6-0.8
		c1.1-1.01,2.11-2.11,3.01-3.22c0.1-0.1,0.2,0,0.3,0c-0.1-0.6,0.5-0.9,0.7-1.31c0.4-0.5,0.6-1.1,1.21-1.51c0,0,0-0.2,0-0.3
		c0,0,0.1,0,0.2,0c0.1-0.2,0-0.3,0.1-0.5c0-0.1,0.2,0,0.3-0.1c0.1-0.1,0.2-0.3,0.3-0.4c-0.2-0.1-0.3,0.1-0.4,0
		c-0.2-0.2-0.2-0.4-0.2-0.6c-0.2-0.4-0.7-0.4-1.01-0.4c-0.8,0-1.61-0.2-2.31,0c-1.11,0.2-2.21,0.3-3.22,0.7
		c-0.3,0.1-0.5,0.1-0.8,0.2c-1.01,0.3-2.11,0.5-3.22,0.8c-0.7,0.2-1.31,0.3-2.01,0.4c-0.8,0-1.61,0.3-2.61,0.1
		c-0.2,0.2-0.5,0.3-0.9,0.3c-0.5-0.5-1.11-0.2-1.61-0.3c-0.6,0-1.21,0.1-1.71,0c-0.5-0.2-1.01-0.1-1.51,0
		c-0.6,0.1-1.11,0.1-1.71-0.2c-0.3-0.1-0.6-0.3-0.9-0.3c-0.1-0.8-0.9-0.9-1.31-1.31c-0.1-0.1-0.1-0.3-0.2-0.4
		c0.3-0.9,2.01-1.71,3.01-1.51c1.01-0.2,2.11-0.1,3.11-0.6c0.1,0.1,0.3,0.1,0.4,0.1c1.21-0.3,2.41-0.4,3.62-0.8
		c0.1,0.1,0.2,0.1,0.4,0.1c0.4-0.4,0.7-0.4,1.11-0.2c0.2-0.3,0.6-0.5,1-0.4c1.11-0.4,2.31-0.5,3.32-0.9c0.2,0,0.1,0.2,0.3,0.2
		c0.3-0.6,0.8-0.7,1.41-0.7c0.3-0.2,0.6-0.4,0.9-0.3c0.1-0.1,0.2-0.2,0.3-0.2c0.7-0.1,1.21-0.5,1.81-0.6c0.3-0.1,0.6-0.2,1.01-0.3
		c0.6-0.1,1.01,0.3,1.41,0.6l0.1,0.1c0.5,0,1.11,0.1,1.61,0.3c0.1,0.1,0.2,0.2,0.2,0.3c0.4,0.4,1.11,0.2,1.51,0.6
		c0.2,0.3,0.6,0.3,0.9,0.4c0.2,0.1,0.4,0.2,0.6,0.3c0.1,0.2-0.2,0.3,0,0.5c0.2,0,0.2-0.3,0.4-0.3c0.3,0.1,0.6,0.3,0.5,0.7
		c0.2,0.1,0.3-0.1,0.5-0.2c0.3,0.6,1.31,0.5,1.41,1.41c0.2-0.1,0.3-0.1,0.5,0c0.1,0,0.1,0,0.1,0c0.1-0.1,0.1-0.1,0.2-0.1
		c0.2,0.1,0.3,0.3,0.5,0.3c0.1,0.1,0.2,0.1,0.3,0.1c0.3,0.2,0.1,0.4,0.1,0.5c0.2,0.1,0.2-0.2,0.4-0.1c0.1,0-0.1,0.1,0,0.2
		c0,0,0,0.1,0.1,0c0.4-0.1,0.7,0.3,0.9,0.5c0.5,0.5,0.9,1.11,1.21,1.71c-0.1,0.5-0.1,0.9,0,1.41c0.1,0.2,0,0.5-0.1,0.7
		c-0.3,0.5-0.4,1.11-0.6,1.61c-0.2,0.5-0.4,1.01-0.6,1.51c-0.2,0.7-0.5,1.41-0.6,2.21c0,0.2,0,0.4-0.1,0.6c-0.2,0.2-0.4,0.5-0.4,0.8
		c-0.1,0.2-0.2,0.3-0.3,0.5c-0.2,0.1-0.4,0.3-0.4,0.6c-0.4,0.1-0.5,0.5-0.6,0.8c-0.2,0.4-0.4,0.7-0.6,1c0,0.2-0.2,0.2-0.3,0.1
		c0,0.2,0,0.3-0.1,0.4c-0.3,0.2-0.5,0.6-0.9,0.7c-0.3,0.1-0.3,0.5-0.3,0.8c-0.3,0-0.4,0.5-0.8,0.3c-0.1,0.2-0.1,0.4-0.1,0.6
		c-0.5,0.4-0.9,0.8-1.31,1.21c-0.2,0.3-0.6,0.5-1,0.6c-0.4,0.7-0.9,1-1.61,1.21c-0.1,0-0.1,0.3-0.3,0.5c-0.1,0.2-0.4,0.1-0.6,0.2
		c-0.2,0.2-0.4,0.5-0.7,0.6c-0.3,0.5-0.5,0.7-1.21,1.01c0,0.2-0.1,0.5-0.2,0.7c-0.2,0-0.4-0.1-0.4-0.3c-0.5,0.1-0.1,0.3-0.1,0.4
		c-0.3,0.1-0.6,0.1-0.9,0.1c-0.2,0.5-0.6,0.9-1.1,1.31c-0.2-0.1-0.4,0.1-0.7,0c-0.2-0.2-0.4-0.2-0.6-0.4c-0.2,0.2-0.2,0.4-0.4,0.6
		c0.3,0.1,0.2-0.2,0.4-0.1c0.1,0,0.2,0,0.3,0.1c-0.4,0.5-1.01,0.3-1.31,0.7c-0.3,0.1-0.5,0.2-0.7-0.1c0-0.2,0.2-0.1,0.2-0.3
		c-0.2-0.4-0.6,0-0.8-0.2c0.1,0.2,0.2,0.5,0.4,0.7c-0.4,0.1-0.4,0.1-0.5-0.4c-0.1,0-0.1-0.1-0.3,0c0.1,0.3-0.2,0.4-0.2,0.7
		c0.1,0.2,0.4,0,0.4,0.3c-0.2,0-0.3,0.1-0.5,0.2c-0.3-0.1,0-0.3-0.2-0.4c-0.2,0.1-0.4,0-0.5-0.2c-0.1,0.1-0.2,0.2-0.3,0.3
		c-0.1,0.2,0,0.5-0.4,0.4c-0.1-0.2,0.1-0.3,0.1-0.5c-0.5,0-0.9,0.6-1.41,0.1c-0.2,0.4-0.6,0.2-0.9,0.2c-0.2,0.1-0.1,0.3-0.1,0.5
		c-0.1,0.1-0.2,0.2-0.4,0.1c-0.2-0.1,0.1-0.4-0.2-0.5c-0.3,0.2-0.2,0.5-0.4,0.7c-0.4,0.3-0.4,0.3-0.6-0.1c0.2-0.1,0-0.3,0.1-0.4
		c0-0.2,0.3-0.1,0.3-0.4c-0.3,0.2-0.6,0.1-0.7,0.5c0.1,0.1,0.2,0.2,0.3,0.4C85.39,116.5,84.89,116.4,84.48,115.99z M78.66,114.69
		c-0.1,0.3-0.3,0.4-0.5,0.3c-0.1,0.2,0,0.2,0,0.3c0,0.1-0.2,0.1-0.1,0.3c0.1,0.1,0.2,0.1,0.3,0.1c0.1-0.1,0-0.2,0.1-0.3
		c0.1,0,0.2,0,0.4-0.1C78.86,115.09,78.86,114.89,78.66,114.69z M79.36,90.77c-0.1-0.2-0.3-0.2-0.5,0c0.3,0.1,0.6,0.4,1.01,0.1
		C79.66,90.77,79.46,90.97,79.36,90.77z M96.84,108.96c-0.2,0.1-0.4,0.2-0.6,0.3c-0.2,0.4-0.6,0.7-0.4,1.21
		C95.94,109.76,96.34,109.26,96.84,108.96z M96.84,111.77c0.1-0.3,0.4-0.5,0.2-0.8c-0.3,0.2-0.2,0.6-0.5,0.7c-0.2,0-0.4-0.2-0.6,0
		C96.24,111.98,96.54,111.57,96.84,111.77z M98.05,105.95c0.2-0.3,0-0.5,0-0.8C97.65,105.54,97.65,105.54,98.05,105.95z
		 M101.26,109.06c-0.2-0.3,0.1-0.6-0.1-0.9c-0.2,0.3-0.2,0.5-0.2,0.8c0.1,0,0.2,0.1,0.3,0.2
		C101.26,109.06,101.26,109.06,101.26,109.06z M105.48,92.58c0-0.3,0-0.6-0.4-0.8c0.1,0.3,0,0.4-0.1,0.6
		C105.08,92.48,105.18,92.68,105.48,92.58z M106.89,92.38c0,0.3,0.3,0.3,0.4,0.4c-0.1,0.4-0.1,0.5,0.3,0.7c0.1-0.2-0.1-0.3,0-0.5
		c0.4,0,0.3-0.3,0.4-0.5c0.2,0,0.2,0.1,0.3,0.2c0,0.2-0.2,0.3-0.1,0.5c0.1,0.1,0.3,0.2,0.5,0.2c0,0.2,0.1,0.4,0.1,0.7
		c0.2-0.1,0.3-0.3,0.3-0.5c0-0.1-0.1-0.1-0.1-0.2c0-0.2,0.1-0.4,0.1-0.6c-0.2,0.2-0.4,0.3-0.6,0c0-0.2-0.1-0.5,0.1-0.8
		c-0.3,0.1-0.4-0.1-0.6-0.1C107.79,92.38,107.29,92.18,106.89,92.38z M109.4,93.99c-0.1,0.2-0.4,0.3-0.6,0.4
		c0.3,0.1,0.7,0.1,0.9,0.4c-0.1,0.2-0.3,0.2-0.3,0.4c-0.1,0.1,0.1,0.2,0.1,0.3c-0.1,0.1-0.2,0.2-0.3,0.2c-0.2-0.2,0.1-0.6-0.3-0.9
		c-0.1,0.2-0.4,0.4-0.6,0.3c-0.1,0.1-0.1,0.2-0.1,0.3c0.1,0.1,0.2-0.1,0.3,0c0,0,0,0.2,0.1,0.2c0.1,0,0.1-0.1,0.1-0.1
		c0.1,0,0.1,0,0.1,0.1c-0.1,0.3-0.6,0.1-0.8,0.4c0-0.1,0-0.2-0.1-0.1c-0.1,0.1-0.1,0.2,0,0.3c0.2-0.1,0.4,0,0.6,0
		c0.1,0.1,0.1,0.3,0.3,0.3c0.1,0,0.2,0,0.3-0.2c-0.1-0.1-0.4-0.2-0.2-0.4c0.1,0,0.1,0.1,0.2,0.2c0.1-0.3,0.5-0.2,0.5-0.5
		c0.3,0,0.4,0.1,0.7,0.1c0-0.2,0.3-0.2,0.3-0.3c-0.2-0.3-0.4-0.5-0.8-0.6c0.1-0.3,0.5,0,0.5-0.3c-0.2-0.1-0.2-0.3-0.2-0.5
		C109.8,93.79,109.7,93.89,109.4,93.99z M108.2,93.49c0,0.1,0,0.1,0,0.2c-0.1,0.1-0.3,0.1-0.3,0.2c0,0.2,0.2,0.4,0.3,0.6
		c0.1,0,0.2,0,0.4,0c0.1-0.2-0.1-0.2-0.2-0.3C108.5,93.79,108.4,93.49,108.2,93.49z M109.3,97c0.2,0,0.4,0,0.5-0.2
		c0-0.1,0-0.3-0.2-0.3c-0.1,0-0.1,0.2-0.2,0.2c-0.1,0.1-0.2-0.1-0.4,0C109.1,96.8,109.2,97,109.3,97z M110.21,92.68
		c-0.2,0.2-0.5,0.1-0.6,0.3c0,0.2,0.1,0.4,0.3,0.5C110.21,93.29,110.21,93.09,110.21,92.68z M110.21,96.5c0.1,0,0.2-0.1,0.1-0.3
		c-0.1,0-0.2-0.2-0.3-0.4c-0.2,0-0.2,0.1-0.2,0.3C110,96.1,110,96.4,110.21,96.5z"/>
	<path class="st0" d="M118.05,72.59c0-0.2,0-0.3,0.1-0.5c0-0.3-0.4-0.4-0.3-0.7c0.1-0.1,0.3-0.1,0.3-0.3c0-0.2-0.3,0-0.3-0.2
		c0-0.1,0.2-0.2,0.2-0.4c-0.2-0.3,0-0.6,0.1-0.9c0.1-0.4,0.1-0.9,0.3-1.31c0.3-0.6,0.5-1.31,0.6-2.01c0.1-0.4,0.2-0.9,0.6-1.31
		c0.1-0.1,0.1-0.2,0.1-0.3c0.4-0.2,0.4-0.5,0.5-0.9c0.4-0.2,0.7-0.6,0.7-1.1c0-0.4,0.3-0.7,0.5-1.01c0.3-0.4,0.5-0.7,0.8-1.01
		c0.3-0.2,0.5-0.5,0.5-0.9c0.5,0,0.8-0.4,1.21-0.5c0.1-0.1-0.1-0.2,0-0.4c0.1-0.1,0.4-0.1,0.4-0.4c0.2-0.1,0.3,0,0.5,0
		c0.2-0.1,0.3,0,0.4-0.3c0.1-0.2,0.3-0.2,0.5-0.3c0.1,0,0.1-0.2,0.2-0.3c0.5-0.2,1.1-0.4,1.61-0.7c0.4-0.2,0.8-0.5,1.21-0.5
		c0.1,0,0.2,0,0.2,0c0.3-0.4,0.6-0.2,1.01-0.3c0.3-0.5,0.9-0.6,1.41-0.6c0.8-0.2,1.61-0.4,2.31-0.6c0.1,0,0.3,0,0.4,0
		c0.4-0.1,0.7-0.1,1.1-0.2c1.01,0,2.01-0.2,3.11,0c0.5,0,1.01,0.1,1.41,0.1c0.8,0.1,1.41,0.3,2.11,0.5c0.3,0.1,0.6,0.1,0.8,0.2
		c1.11,0.4,2.31,0.6,3.42,1.1c0.8,0.3,1.51,0.7,2.31,1.11c1.01,0.5,1.81,1.21,2.61,1.81c0.7,0.7,1.41,1.41,2.01,2.01
		c1.01,1.11,1.91,2.21,2.71,3.42c0.2,0.3,0.4,0.7,0.6,1.1c0.2,0.4,0.4,0.7,0.6,1.11c0.3,0.4,0.5,0.8,0.7,1.31c0,0,0,0.1,0.1,0.1
		c0.4,0.5,0.5,1.11,0.8,1.61c0.4,0.8,0.7,1.61,1.01,2.31c0.4,0.8,0.5,1.61,0.8,2.31c0.2,0.5,0.3,1.1,0.4,1.61
		c0.2,1.1,0.4,2.21,0.7,3.31c0.3,1.61,0.3,3.22,0.5,4.92c0.1,1.01,0.1,2.01,0.1,3.02c0.1,1.41,0.3,2.81,0.2,4.32s-0.4,3.01-0.7,4.52
		c-0.2,0.9-0.4,1.81-0.6,2.71c-0.4,1.41-0.9,2.71-1.61,3.92c-0.5,0.8-0.9,1.61-1.41,2.41c-0.6,0.8-1.01,1.71-1.91,2.31
		c-0.2,0-0.3,0.2-0.5,0.2c-0.4,0.1-0.6,0.3-0.7,0.6c-0.4,0.9-0.8,1.81-1.21,2.71c-0.2,0.5-0.5,1.01-1.1,1.41
		c-0.3,0.2-0.5,0.5-0.6,0.9c-0.2,0.1-0.4-0.2-0.6-0.1c-0.4,0.5-1.1,0.1-1.61,0.4c-0.2-0.1-0.1-0.2-0.2-0.2c-0.2,0-0.1,0.3-0.2,0.5
		c-0.2-0.1-0.5-0.1-0.7,0c-0.1,0-0.1-0.1-0.2-0.1c-0.2-0.1-0.3,0-0.4,0c-0.1,0-0.1-0.1-0.2-0.2c-0.2-0.1-0.3,0.1-0.5-0.1
		c-0.1,0.2-0.2,0.3-0.3,0.4c0.1,0.1,0.2,0,0.4,0c-0.1,0.3-0.3,0.2-0.5,0.2c-0.5,0-1.01,0-1.41,0.1c-0.4,0.1-0.8,0.1-1.21,0
		c-0.1-0.2,0-0.4,0-0.6c0-0.1-0.2-0.1-0.2-0.2c0-0.2,0.5-0.1,0.2-0.4c-0.2,0-0.4,0.1-0.7,0.1c0,0.1,0,0.2,0,0.3
		c0.1,0.1,0.2-0.1,0.3-0.1c-0.1,0.3,0.2,0.6,0.2,1.01c-2.11,0-4.12,0-6.13-0.2c-0.2-0.1,0-0.3-0.2-0.3s-0.1,0.2-0.2,0.3
		c0-0.1-0.1-0.1-0.1-0.1c-0.2-0.1-0.4-0.1-0.7-0.1c-0.7,0-1.51-0.1-2.21-0.4c-0.7,0.1-2.91-0.8-3.22-1.31c-0.2,0.3-0.5,0.2-0.7,0
		c-0.3-0.2-0.6-0.1-0.8-0.5c0,0-0.1,0-0.2,0c-0.7-0.3-1.41-0.7-2.11-1.1c-0.6-0.4-1.11-0.8-1.81-1.21c-0.2-0.1-0.4-0.4-0.4-0.7
		c-0.1-0.1-0.2,0-0.3,0c-0.1-0.1-0.1-0.2-0.2-0.4c-0.8-0.3-1.31-1-2.01-1.61c0-0.2-0.1-0.3-0.2-0.5c0.1-0.1,0.1-0.2,0.2-0.3
		c0-0.1-0.1-0.3-0.2-0.4c-0.3-0.1-0.5-0.2-0.8-0.3c-0.1-0.6-0.7-0.7-1.21-0.8c0-0.3-0.1-0.6-0.2-0.8c-0.2-0.5-0.7-0.6-0.8-1.21
		c0-0.2-0.2-0.4-0.4-0.6c-0.2-0.2-0.4-0.5-0.4-0.8c0-0.4,0-0.8-0.1-1.21c-0.1-0.2,0.1-0.3,0-0.4c-0.2,0.1-0.3,0-0.4-0.2
		c-0.1-0.3-0.3-0.5-0.5-0.7c0-0.9-0.3-1.81-0.6-2.61c-0.1-0.5-0.2-1.01-0.2-1.51c0-0.3,0.1-0.6-0.1-0.9c-0.1-0.1,0-0.2,0-0.3
		c0.1-0.1,0.2-0.1,0.3-0.1c0-0.3-0.1-0.3-0.3-0.2c-0.2-0.8-0.3-1.71-0.3-2.61c-0.2-0.2-0.3-0.7-0.7-0.7c0-0.3-0.1-0.4-0.2-0.6
		c0-0.2,0.1-0.2,0.1-0.4s-0.2-0.1-0.3-0.3c-0.1,0-0.2,0.2-0.3,0.2c-0.1-0.2-0.2-0.4-0.1-0.5c0.2-0.2,0.4-0.1,0.5-0.3
		c-0.1,0-0.1-0.1-0.2-0.2c-0.2,0-0.3-0.1-0.5-0.2c0-0.2-0.2-0.4-0.3-0.5c-0.1-0.2-0.2-0.4-0.2-0.6c0.2,0.1,0.3,0.3,0.4,0.5
		c0.1,0.1,0.3,0.2,0.4,0.3c0.3-0.5,0.2-0.9,0.2-1.41c0-0.4,0-0.9,0-1.31c0-0.1-0.1-0.1-0.2-0.1c-0.2-0.3,0.1-0.7-0.1-1.01
		c-0.2-0.3,0-0.5,0.5-0.8c-0.2-0.2-0.3-0.5-0.3-0.9c0.1-0.1,0.2,0,0.3,0c0-0.2,0.1-0.3,0.1-0.4c-0.2-0.2-0.3,0.1-0.4,0
		c-0.2-0.3-0.3-0.7,0-1c0-0.3-0.2-0.7,0.1-1.01c0-0.1-0.1-0.1-0.1-0.2s0.1-0.2,0.2-0.3c0-0.1,0-0.3,0-0.4c-0.1-0.2-0.2,0.1-0.3-0.1
		c0.1-0.2,0.3-0.3,0.2-0.6c0.1-0.3,0.5-0.1,0.7-0.2c0-0.2,0-0.3,0-0.5c-0.3,0.2-0.5,0-0.6-0.2c0-0.2,0.1-0.2,0.1-0.4
		c-0.1,0-0.3,0-0.2-0.2c0.3-0.1,0.5-0.1,0.8-0.4c-0.3,0-0.4-0.3-0.7-0.4c0-0.1,0.1-0.2,0.1-0.3c0.2,0,0.4,0.1,0.6,0.1
		c0.1-0.2,0.2-0.4,0.3-0.5c0.6,0,0.7-0.2,0.5-0.5c-0.2,0-0.2,0.2-0.3,0.2c-0.1-0.3,0.1-0.4,0.3-0.6c0.1-0.4,0.1-0.8,0-1.21
		c0.4-0.3,0.2-0.9,0.6-1.21c0.3,0.1-0.1,0.5,0.3,0.6c-0.2,0.4,0,0.7,0.2,1.11c-0.2,0.2-0.4,0.3-0.5,0.6c0.1,0.2,0.3,0.3,0.3,0.5
		c0.3-0.2,0.3-0.4,0.4-0.7c-0.3,0-0.3-0.2-0.3-0.4C118.15,72.89,117.95,72.79,118.05,72.59z M117.04,75.4c0.1-0.3-0.1-0.5-0.3-0.6
		c-0.1,0.1-0.1,0.3-0.3,0.4c0.1,0.1,0,0.3,0.1,0.4c0.2,0,0.1-0.3,0.3-0.3C116.94,75.2,116.94,75.5,117.04,75.4z M117.74,75.8
		c-0.1,0.2,0.1,0.2,0.1,0.3c0,0.2-0.2,0.2-0.2,0.3c0,0.2,0,0.3,0.2,0.4c0.2,0,0.3-0.1,0.3-0.3c-0.1-0.2-0.1-0.5,0-0.9
		C117.95,75.5,117.84,75.6,117.74,75.8z M118.35,87.26c-0.1-0.1-0.2-0.3-0.4-0.1c0.1,0.2,0.1,0.4,0.2,0.7
		C118.45,87.66,118.35,87.46,118.35,87.26z M118.25,84.34c-0.3,0.4-0.1,0.8-0.2,1.1C118.35,85.25,118.45,85.05,118.25,84.34z
		 M118.85,71.38c0.3,0.3,0,0.7,0.2,1c0.3-0.3,0.2-0.5,0.1-0.8c0-0.2,0.1-0.3,0-0.5C119.05,71.08,118.95,71.18,118.85,71.38z
		 M146.78,69.07c-0.4-0.7-0.6-1.41-1.11-2.01c-0.1-0.2-0.2-0.3-0.3-0.5c-0.4-0.8-1.01-1.41-1.51-2.21c-0.3-0.5-0.8-1-1.21-1.41
		c-0.6-0.6-1.11-1.21-1.81-1.71c-0.7-0.6-1.31-1.21-2.11-1.51c0-0.1,0-0.1,0-0.1c-0.3-0.3-0.6-0.4-1.01-0.5c-0.4-0.1-0.9-0.3-1.41,0
		c-1.01,0.5-1.91,1.31-2.61,2.31c-0.6,0.8-1.1,1.71-1.61,2.61c-0.1,0.2-0.1,0.5-0.3,0.6c-0.4,0.6-0.6,1.21-0.7,1.91
		c-0.5,1.41-0.8,3.01-1.1,4.52c-0.3,1.21-0.5,2.51-0.5,3.72c-0.1,1.51-0.3,3.02-0.3,4.42c-0.1,1.11-0.2,2.11-0.2,3.11
		c0,0.7,0,1.31,0,1.91c0,0.4,0.1,0.8,0.1,1.21c0.1,1.41,0.1,2.81,0.2,4.32c0.1,0.9,0.2,1.81,0.6,2.71c0.4,0.9,0.6,1.91,0.9,2.91
		c0.3,1.01,0.6,2.01,1.21,2.91c0.1,0.3,0.4,0.5,0.4,0.9c0.3,0.1,0.3,0.4,0.4,0.6c0.1,0.1,0.2,0,0.3,0c0.3,0.4,0.6,0.6,0.8,1.01
		c0.1,0.2,0.2,0.4,0.3,0.5c0.2,0.3,0.4,0.5,0.5,0.7c0.5,0.7,1.11,1.31,1.71,1.81c0.8,0.7,1.71,1.41,2.51,2.01
		c0.6,0.6,1.31,1.01,1.91,1.51c0.5,0.5,0.8,0.5,1.31-0.1c0.4-0.3,0.7-0.5,1.1-0.7c0.2,0,0.3-0.1,0.5-0.2c0.4-0.2,0.5-0.6,0.8-0.9
		c0-0.5,0.7-0.7,0.6-1.31c0.1,0,0.2-0.2,0.3-0.1c0.2,0.1,0.1,0.3,0.2,0.4c0.3,0.2,0.3,0.2,0.7,0c0-0.1,0.1-0.3,0.1-0.4
		c0.5-0.2,0.7-0.6,0.9-1.01c0.3-0.7,0.7-1.31,0.9-2.01c0.1-0.3,0.3-0.6,0.7-0.6c0-0.5,0.3-0.8,0.5-1.21c0.2-0.4,0.5-0.7,0.6-1.11
		c0.2-0.7,0.3-1.51,0.7-2.11c0.1-0.2,0.1-0.4,0-0.7c0-0.1,0-0.3,0.1-0.5c0.1-0.6,0.3-1.11,0.3-1.71c0.1-0.8,0.4-1.61,0.3-2.31
		c0.1-0.2,0.3-0.2,0.3-0.4c0-0.1-0.1-0.2-0.1-0.3c0.1-0.4,0.1-0.8,0.2-1.21c0.1-0.5,0.1-0.9,0-1.31c-0.1-0.4-0.2-0.7-0.2-1.01
		c0.1-0.8-0.2-1.61-0.4-2.41c0-0.5-0.2-1.11-0.2-1.61c0-0.6,0.1-1.11-0.2-1.71c-0.1,0,0-0.2,0-0.3c-0.1-0.8-0.2-1.71-0.4-2.51
		c-0.2-0.4-0.3-0.9-0.3-1.41c-0.1-0.3-0.4-0.6-0.2-1.01c-0.3-0.3-0.5-0.6-0.5-1c-0.1-0.6-0.5-1.11-0.7-1.71
		c-0.3-0.8-0.8-1.51-1-2.31C147.28,70.18,147.08,69.57,146.78,69.07z M139.95,111.67c-0.2,0-0.4,0-0.6,0c0.1,0.2-0.1,0.3-0.1,0.5
		c0.3-0.2,0.6-0.3,1.01-0.4c0-0.1,0-0.2,0-0.3C140.05,111.47,140.05,111.67,139.95,111.67z M139.35,112.68c0,0.1,0.1,0.3,0.2,0.3
		c0.2,0,0.2-0.1,0.3-0.2C139.75,112.58,139.55,112.48,139.35,112.68z"/>
	<path class="st0" d="M86.86,188c-0.1,0.3-0.3,0.5-0.5,0.6c-0.3,0.2-0.5,0.5-0.7,0.8c-0.5,0.9-1.31,1.21-2.31,1.21
		c-0.6,0-1.21,0.2-1.61,0.6c-0.5,0.3-1.01,0.6-1.61,0.5c-0.5,0-1.01,0.2-1.41,0.5c-0.1,0.1-0.1,0.1-0.2,0.1c0-0.1-0.1-0.1-0.1-0.2
		c-0.3-2.11-0.6-4.32-0.5-6.43c0.1-1.81,0-3.52,0.1-5.22c0-1.31-0.1-2.71,0-4.02c0.3-2.71,0.2-5.33,0.3-8.04
		c0.1-1.81,0.1-3.72,0.3-5.53c0.1-1.41,0.2-2.71,0.2-4.12c0-2.01,0.2-4.02,0.1-6.03c0-0.8,0-1.61,0.1-2.41
		c0.3-1.81,0.1-3.72,0.2-5.53c0.1-1.81,0.3-3.62,0.3-5.43c0-0.2,0-0.5-0.2-0.7c-0.3,0-0.7,0.1-1.11,0.1c-0.8,0.1-1.61-0.2-2.41-0.4
		c-0.2-0.1-0.5-0.2-0.7-0.1c-0.3,0-0.4-0.2-0.7-0.3c-0.5,0.2-1.21,0-1.81,0.1c-0.6,0-1.31-0.1-1.91-0.3c-0.5-0.1-1.01,0-1.51,0
		c-0.2-0.1-0.3-0.1-0.5-0.1c-0.1,0-0.2-0.1-0.3-0.2c-0.3,0.4-0.7,0.2-1,0.1c-0.5-0.2-1.11-0.2-1.61-0.4c-0.6-0.1-1.31-0.3-1.91-0.5
		c-0.2-0.1-0.3-0.3-0.5-0.4c-0.5-0.1-0.9-0.5-1.41-0.7c-0.6-0.4-1.1-0.9-1.61-1.51c-0.5-0.7-1-1.41-1.31-2.21
		c-0.2-0.4-0.3-0.8-0.8-1.1c1.71-0.4,3.42-0.7,5.02-0.9c0.5-0.1,1.01-0.2,1.61-0.3c0.1,0,0.2,0,0.3-0.1c1.21-0.1,2.41-0.3,3.72-0.4
		c0.7-0.2,1.51-0.2,2.21-0.1c1.01,0,1.81-0.2,2.81-0.3c1.1,0,2.31,0,3.42,0c0.7,0,1.31-0.1,2.01-0.2c1.21-0.2,2.41,0,3.72,0
		c1.01,0,2.11-0.1,3.22-0.2c0.6-0.1,1.31-0.1,2.01-0.1c1.21-0.1,2.41-0.2,3.62-0.3c1.31-0.1,2.61-0.3,3.82-0.3
		c1.81-0.1,3.52-0.2,5.33-0.1c1.31,0.1,2.61,0.1,3.92,0.3c0.9,0.1,1.71,0.3,2.61,0.4c0.5,0.1,1.1,0.2,1.61,0.2c0.2,0,0.4,0,0.7,0.1
		c-0.1,0.4-0.1,0.9,0,1.31c0.1,0.3,0.2,0.6,0.2,0.9c0,0.5-0.1,0.9-0.2,1.31c-0.1,0.3-0.1,0.6,0.1,0.9c0.1,0.3,0.1,0.6,0,0.9
		c-0.2,0.2-0.2,0.4-0.2,0.7c0.1,0.4,0,0.7,0,1.01c-0.2,0.5-0.4,1-0.5,1.51c0,0.6-0.3,0.9-0.7,1.41c-0.5-0.1-1,0.4-1.61,0.5
		c-0.7,0.2-1.31,0.5-2.11,0.2c-0.3-0.1-0.6-0.1-0.8-0.1c-0.9,0.1-1.71-0.1-2.61,0.1c-0.7,0.1-1.41-0.1-2.21,0
		c-1.11,0.1-2.31,0.1-3.52,0.2c-1,0.1-2.01,0.4-3.01,0.4c-0.6,0-1.31-0.1-1.91,0c-0.7,0.2-1.11,0.6-1.11,1.31
		c0,0.6,0.1,1.21,0.1,1.81c-0.1,1,0.1,2.01,0.1,3.01c-0.1,0.9,0,1.71,0.1,2.61c0.1,0.6,0.2,1.1,0.1,1.71c-0.1,0.4-0.1,0.9-0.1,1.31
		c0,0.7-0.2,1.41-0.2,2.21c0,0.2,0,0.4,0,0.7c0.2,0.6-0.1,1.21-0.2,1.81c0,0.3,0,0.7,0.1,1.11c0.1,0.6-0.2,1.21-0.1,1.81
		c0,0.8-0.1,1.51,0,2.21c0.1,0.4,0.1,0.7,0,1c0,0.9,0,1.71,0.1,2.51c0.1,0.2,0.1,0.5,0.1,0.7c-0.2,0.8-0.1,1.71,0,2.51
		c0,0.1,0.1,0.2,0.1,0.2c-0.4,1.01-0.1,1.91-0.1,2.91c-0.1,0.6-0.1,1.31-0.1,2.01c0,0.1,0,0.1,0,0.2c-0.3,0.9-0.3,1.81-0.4,2.71
		c0,1.11,0.1,2.21-0.2,3.32c-0.2,0.8-0.3,1.71-0.2,2.51c0,0.6,0,1.11-0.2,1.71c-0.3,0.6-0.3,1.41-0.5,2.11
		c-0.1,0.4-0.2,0.8-0.3,1.21C87.37,187.1,87.17,187.6,86.86,188z M66.57,135.55c-0.2,0.1-0.2,0.3-0.2,0.5c0.1,0.1,0.1,0.3,0.3,0.3
		c0.1-0.2,0.2-0.3,0.2-0.5C66.87,135.65,66.77,135.55,66.57,135.55z"/>
	<path class="st0" d="M198.82,180.59c-0.13,0.26-0.18,0.63-0.17,0.88c-0.75,0.41-1.66,0.07-2.08,1.72c-0.35-0.11-0.7-0.22-0.98-0.34
		c-0.08-0.37-0.1-0.75-0.31-0.74c-0.2,0.13-0.05,0.5-0.18,0.63c-0.34,0.26-0.69,0.03-0.97-0.08c-0.49-0.11-0.97-0.08-1.45,0.06
		c-0.41,0.14-0.83,0.16-1.25,0.05c-0.48,0.02-0.89,0.16-1.38,0.18c-0.48,0.02-0.96,0.29-1.51,0.44c-0.13,0.26-0.26,0.51-0.31,0.76
		c-0.19,0.38-0.03,1-0.44,1.15c-0.21-0.12-0.43-0.36-0.72-0.6c-0.55,0.15-1.18-0.08-1.75-0.43c-0.43-0.36-0.85-0.34-1.32-0.2
		c-0.42,0.02-0.83,0.03-1.25-0.07c-0.14,0.01-0.21,0.01-0.27,0.14c-0.12,0.38,0.16,0.5,0.11,0.87l-0.07,0
		c-0.83,0.03-1.6-0.18-2.44-0.27c-0.56-0.1-1.05-0.21-1.54-0.31c-0.49-0.11-0.91-0.09-1.39-0.19c-0.63-0.22-1.26-0.2-1.95-0.17
		c-0.62,0.03-1.26-0.2-1.88-0.3c-0.28-0.11-0.56-0.23-0.76,0.16c-0.42-0.11-0.64-0.48-0.94-0.84c-0.14,0.01-0.28,0.01-0.41,0.14
		c-0.28-0.11-0.43-0.36-0.57-0.48c-0.49-0.23-0.95,0.42-1.39-0.19c-0.34,0.14-0.61,0.28-0.89,0.29c-0.07,0-0.14,0.01-0.21,0.01
		c-0.72-0.6-1.41-0.69-2.17-0.41c-0.41,0.14-0.48,0.02-0.87-0.84c-0.43-0.23-0.91-0.21-1.39-0.19c-0.28,0.01-0.62,0.15-0.89,0.16
		c-0.28,0.01-0.48,0.02-0.78-0.47c0.56,0.23,0.96-0.17,1.45-0.19c0.42-0.02,0.9-0.04,1.31-0.18c-0.44-0.48-1.06-0.58-1.36-1.07
		c-0.36-0.24-0.55,0.02-0.83,0.03c-0.14-0.12,0.05-0.38-0.02-0.5c-0.24-0.74-0.57-0.48-0.85-0.34c-0.86-0.72-1.6-1.69-2.45-2.28
		c0.41-0.14,0.7,0.22,1.05,0.33c-0.16-0.49-0.38-0.86-0.33-1.36c-0.22-0.37-0.43-0.23-0.57-0.35c-0.51-0.6-0.82-1.34-1.13-2.21
		c0.06-0.13,0.13-0.26,0.19-0.38c-0.28-0.11-0.44-0.48-0.6-0.98c0.04-0.75,0-1.75-0.24-2.37c-0.33-1.24-0.45-2.49-0.64-3.73
		c-0.3-2.12-0.25-4.25-0.2-6.38c0.07-3.39,0.42-6.53,0.98-9.69c0.27-1.77,0.68-3.54,1.25-5.06c0.31-0.89,0.62-1.78,0.93-2.67
		c0.63-1.41,1.42-2.44,2.21-3.48c0.66-0.78,1.32-1.56,2.06-2.22c1.07-0.92,2.22-1.72,3.29-2.52c0.73-0.66,1.55-1.07,2.3-1.35
		c1.43-0.56,2.79-1.24,4.23-1.56c2.82-0.62,5.72-0.86,8.62-0.99c0.9-0.04,1.8-0.07,2.7-0.11c1.04-0.04,2.15-0.09,3.26-0.01
		c1.4,0.32,2.78,0.13,4.17,0.33c1.67,0.06,3.26,0.12,4.93,0.3c0.7,0.1,1.39,0.19,2.1,0.41c0.35,0.11,0.68-0.28,1.11-0.05
		c-0.07,1.76-0.06,3.64-0.4,5.41c-0.1,0.88-0.2,1.89-0.37,2.77c-0.27,1.89-0.86,2.67-1.97,2.71c-0.55,0.15-1.24,0.3-1.86,0.33
		c-0.89,0.16-1.87,0.08-2.76,0.24c-0.9,0.04-1.8-0.05-2.62,0.23c-0.96,0.29-1.86,0.2-2.75,0.61c-0.54,0.27-1.17,0.17-1.72,0.32
		c-0.62,0.03-1.25,0.05-1.86,0.2c-0.28,0.01-0.55,0.02-0.83,0.03c-0.91-0.21-1.8,0.07-2.69,0.36c-0.48,0.15-0.95,0.41-1.45,0.19
		c-0.28-0.11-0.62,0.15-0.89,0.16c-0.95,0.54-1.99,0.46-2.95,0.75c-0.82,0.16-1.59,0.19-2.41,0.48c-0.55,0.15-1.25,0.05-1.87,0.08
		c-0.41,0.14-0.9,0.04-1.3,0.43c-0.27,0.14-0.49-0.11-0.69,0.03c-0.47,0.4-0.95,0.54-1.35,0.93c-0.47,0.4-0.87,0.66-1.35,0.93
		c-1.08,0.8-2.14,1.84-3.22,2.64c-0.13,0.13-0.26,0.39-0.39,0.52c-0.91,1.42-1.83,2.58-2.45,4.36c-0.37,1.02-0.6,2.16-0.76,3.42
		c-0.04,0.63-0.15,1.38-0.04,2.26c0.44,0.61,0.96,1.34,1.53,1.82c1.51,1.19,3.06,2,4.68,2.56c2.61,1.02,5.18,1.29,7.83,1.55
		c0.77,0.09,1.47,0.44,2.24,0.41c0.56,0.1,1.19,0.2,1.81,0.18c0.62-0.03,1.25-0.05,1.88,0.17c0.28-0.01,0.55-0.02,0.83-0.03
		c0.89-0.16,1.74,0.05,2.58,0.27c0.35-0.01,0.69-0.15,1.11-0.05c0.97,0.08,1.95,0.17,2.99,0.25c1.33,0.2,2.56-0.11,3.88-0.16
		c0.69-0.03,1.38-0.06,2.09,0.16c0.42,0.11,0.91,0.09,1.33,0.2c0.21,0.12,0.43,0.36,0.57,0.48c0.28,0.11,0.41-0.14,0.62-0.15
		c0.29,0.24,0.63,0.1,0.86,0.72c0.21-0.01,0.2-0.26,0.19-0.38c0.33-0.39,0.62-0.15,0.9,0.09c1.07,0.71,2.02,1.92,2.78,3.52
		c0,0,0.01,0.13,0.08,0.25c-0.13,0.26-0.34,0.26-0.46,0.65c-0.25,0.76-0.49,1.52-0.73,2.41c0.25,0.99-0.06,1.88,0.11,2.75
		c-0.06,0.25-0.2,0.26-0.27,0.26c-0.21,0.01-0.22-0.24-0.3-0.49c-0.06,0.25-0.12,0.38-0.19,0.51c0.02,0.38,0.23,0.49,0.18,0.87
		c-0.21,0.01-0.36-0.24-0.56-0.1c0.06-0.25,0.34-0.26,0.31-0.89c-0.14-0.12-0.23-0.62-0.45-0.86c-0.12,0.51,0.05,1.13-0.08,1.51
		c0.14,0.12,0.15,0.24,0.22,0.24C198.65,179.97,198.67,180.34,198.82,180.59z M196.36,169.92c0.02,0.5,0.05,1.13,0.34,1.49
		c0.12-0.51,0.11-0.76,0.02-1.13C196.64,170.03,196.56,169.78,196.36,169.92z M196.04,172.06c0.08,0.25,0.15,0.37,0.29,0.24
		c0.05-0.38,0.04-0.63-0.12-1.12C195.94,171.44,195.89,171.81,196.04,172.06z M196,177.82c-0.13,0.13-0.12,0.51-0.18,0.76
		c0.07,0.12,0.15,0.37,0.15,0.37c0.09,0.5-0.11,0.63-0.03,1c0.07,0.12,0.07,0.12,0.15,0.24c0.13-0.13,0.27-0.14,0.39-0.52
		C196.19,179.19,196.5,178.31,196,177.82z M198.41,180.73c0.2-0.26,0.12-0.51,0.03-0.88C198.25,180.24,198.19,180.49,198.41,180.73z
		 M185.77,183.64c-0.12,0.38-0.05,0.5,0.1,0.62c0.28-0.01,0.56,0.1,0.84,0.22c0.14-0.01,0.2-0.26,0.11-0.63
		C186.47,183.73,186.12,183.62,185.77,183.64z M187.87,184.05c-0.21,0.01-0.35-0.11-0.55,0.15
		C187.54,184.44,187.67,184.31,187.87,184.05z"/>
	<path class="st0" d="M233.39,132.4c-0.19-0.48-0.77-0.58-0.97-1.06c0-0.29,0.29-0.48,0.48-0.77c1.06,0,2.03-0.1,3.09-0.29
		c0.39-0.1,0.87-0.1,1.26,0.1c0.29,0.19,0.68,0.29,1.06,0.29c0.39,0.1,0.77,0.1,1.06,0.19c0.48,0.19,0.97,0.48,1.45,0.77
		c0.48,0.77,1.16,1.64,1.45,2.61c0.29,1.16,0.77,2.32,1.06,3.58c0.29,1.45,0.19,2.9,0.39,4.35c0.1,1.16,0,2.42,0.1,3.67
		c0,0.29,0,0.58-0.1,0.87c-0.39,1.26-0.39,2.61-0.68,3.87c-0.19,1.16-0.39,2.22-0.68,3.29c-0.29,1.45-0.19,2.9-0.48,4.35
		c0,0.1,0,0.1,0,0.19c0.19,1.35,0,2.71,0,3.96c0,0.68,0.1,1.26,0.19,1.84c0,0.58-0.1,1.16-0.19,1.74c-0.1,0.77,0,1.64-0.19,2.42
		c-0.1,0.19-0.1,0.29,0,0.48c0.1,0.97,0,2.03-0.19,3.09c-0.1,0.58-0.1,1.16-0.19,1.74c-0.1,1.45-0.1,3-0.29,4.45
		c0,0.48,0,0.97-0.1,1.45c0,0.97-0.1,2.03-0.58,3c-0.19,0.39-0.19,0.97-0.48,1.35c-0.19,0.48-0.39,0.87-0.87,1.16
		c-0.29,0.19-0.48,0.48-0.68,0.77c-0.19,0.39-0.48,0.68-0.77,0.97c-0.97,0.77-1.64,1.64-2.32,2.71c-0.19,0.1-0.39,0.1-0.68,0
		c-0.58-1.93-1.84-3.58-2.22-5.61c-0.39-1.74-0.48-3.38-0.39-5.12c0.1-2.71,0.29-5.41,0.29-8.12c0-1.45,0-2.9,0-4.35
		c-0.1-2.22-0.1-4.45,0.1-6.67c0-0.39,0-0.77-0.19-0.97c-0.29-0.19-0.48-0.1-0.68-0.1c-1.06,0.29-2.13,0.39-3.19,0.39
		c-0.39,0-0.77,0.1-1.16,0.19c-0.97,0.19-2.03,0.29-3,0.48c-0.87,0.29-1.74,0.39-2.61,0.58c-0.87,0.29-1.84,0.29-2.71,0.19
		c-0.29,0-0.58-0.1-0.87,0c-0.29,0.19-0.29,0.58-0.29,0.87c0,0.29,0,0.58,0,0.77c-0.19,1.64-0.68,3.19-0.97,4.84
		c-0.19,0.77-0.19,1.64,0.1,2.61c-0.1,0.19-0.19,0.48-0.29,0.87c-0.1,0.48-0.19,0.97,0,1.55c0.1,0.29,0,0.58,0,0.87
		c-0.19,0.19-0.29,0.39-0.39,0.58c-0.1,0.58,0.48,1.35-0.39,1.74c-0.1,1.35-0.19,2.71-0.29,3.96c0,0.48-0.1,0.87-0.39,1.26
		c-0.29,0.48-0.48,0.97-0.48,1.64c0.1,0.68-0.1,1.26-0.77,1.64c0,0.87-0.68,1.45-0.58,2.22c-0.87,0.77-1.64,1.55-2.03,2.61
		c-0.68,0.19-0.87,0.97-1.64,1.06c-0.19,0.29-0.29,0.58-0.38,0.77c-0.19,0.29-0.48,0.19-0.77,0.39c-0.1,0.1-0.1,0.29-0.19,0.39
		c-0.29,0.1-0.58,0.19-0.87,0.19c-0.1-0.1-0.19-0.19-0.19-0.29c-0.39-1.06-0.77-2.22-0.87-3.38c-0.1-1.35-0.29-2.8-0.29-4.16
		c0-0.87-0.1-1.74-0.1-2.71c0.1-1.16,0-2.42,0-3.58c0.1-1.93,0-3.87,0.19-5.7c0.19-1.07,0.29-2.13,0.38-3.09
		c0-0.29,0.1-0.48,0.29-0.68c-0.29-0.77-0.1-1.45,0.29-2.03c-0.19-0.38-0.19-0.87-0.1-1.26c0.29-2.51,0.29-5.12,0.1-7.73
		c0-0.68,0-1.45,0-2.13c-0.1-3.58-0.1-7.06-0.19-10.64c0-2.03,0.1-4.06,0.19-6.09c0.1-2.03,0.29-4.06,0.39-6.09
		c0-0.48,0-0.97,0-1.35c-0.19-0.39-0.39-0.58-0.58-0.77c0-0.29,0.1-0.39,0.29-0.68c0.87,0,1.64-0.19,2.51-0.29
		c1.74-0.29,3.58-0.29,5.41,0c0.97,0.19,1.84,0.68,2.42,1.45c0.58,0.58,0.68,1.35,0.77,2.13c0.1,0.48,0,1.06,0.19,1.55
		c0.1,0.29,0,0.48,0,0.77c-0.39,1.74-0.48,3.58-0.68,5.32c-0.1,0.58-0.1,1.26-0.1,1.84c0,0.29,0,0.68-0.19,0.97
		c0.19,1.26,0.19,2.42,0.19,3.67c0,0.68,0,1.45,0.19,2.22c0.19,0.87,0.19,1.84,0.19,2.8c-0.1,0.87,0,1.84,0,2.71
		c0.39,0.39,0.77,0.39,1.16,0.29c2.71-0.48,5.51-1.07,8.32-1.55c1.35-0.19,2.61-0.1,3.96,0c0.29,0.1,0.58,0.19,1.06,0
		C233.2,146.03,233.59,139.17,233.39,132.4z"/>
	<path class="st0" d="M146.22,188.77c0.1,0,0.1-0.2,0.2-0.2c0.1,0,0,0.2,0.1,0.2c-0.81,0.71-1.53,1.32-2.54,1.53
		c0.1-0.1,0.1-0.2,0.2-0.41c-0.3-0.1-0.61-0.1-0.81-0.2c0,0.2,0.1,0.2,0.2,0.3c0,0.1-0.2,0.2-0.1,0.31c0.2,0,0.1-0.2,0.2-0.1
		c0.2,0,0.2,0,0.31,0.1c-0.1,0.1-0.2,0.2-0.41,0.2c-0.51,0.1-1.12,0.2-1.63,0.4c-0.1,0.1-0.41,0.1-0.61,0
		c-0.3,0.31-1.02,0.51-1.32,0.31c-0.1,0.1-0.2,0.3-0.41,0.2c-0.2-0.31-0.2-0.31-0.51-0.31c-0.1,0,0,0.1,0,0.2c0,0,0,0.1,0.1,0.1
		c-0.31,0.41-0.61,0-0.81,0.2c-0.31,0.1-0.51,0.3-0.71,0c-0.3-0.1-0.2,0.2-0.4,0.2c-0.41-0.1-0.71,0.2-1.12,0.2
		c-0.1-0.41-0.2-0.51-0.61-0.61c0.1,0.3,0.3,0.41,0.3,0.61c-0.51,0.2-1.02,0.41-1.53,0.2c-0.3,0.1-0.61,0.3-0.92,0
		c-0.41,0.3-0.81,0-1.12-0.1c-0.1-0.1-0.2-0.2-0.31-0.41c-0.1-0.1-0.2,0-0.3,0c-0.1,0.1,0.1,0.2,0.1,0.41c-0.1,0.2-0.2,0.2-0.3,0.2
		c-0.2,0-0.1-0.2-0.2-0.3c-0.2-0.31-0.51,0.1-0.81-0.1c-0.2,0.1-0.2,0.31-0.41,0.31c-0.1,0-0.2-0.31-0.41-0.31
		c-0.1,0-0.2,0.2-0.51,0c0-0.1-0.1-0.41-0.3-0.41c-0.1,0.2,0,0.31-0.1,0.41c-0.71,0-1.53-0.1-2.24-0.41c-0.1,0-0.2,0-0.2,0.1
		c-0.2-0.1-0.51-0.1-0.71-0.1c-0.1-0.2-0.1-0.3-0.2-0.41c-0.2-0.1-0.31,0.1-0.41,0.1c-0.31,0-0.51-0.1-0.51-0.51
		c-0.2,0.3-0.31,0.2-0.51,0.1c-0.92-0.41-1.83-0.92-2.75-1.53c-0.51-0.41-1.02-0.92-1.53-1.43c-0.51-0.51-0.92-1.02-1.33-1.53
		c-0.51-0.71-0.92-1.32-1.32-2.13c-0.51-1.02-0.92-2.24-1.32-3.46c-0.51-1.43-0.92-2.85-1.22-4.27c-0.1-0.81-0.2-1.53-0.31-2.34
		c-0.2-1.22-0.3-2.54-0.51-3.87c0-0.71-0.1-1.32-0.1-2.03c-0.1-0.81-0.2-1.73-0.2-2.54c-0.1-1.22-0.3-2.54-0.3-3.87
		c0-0.3,0-0.51,0-0.81c0-0.3-0.1-0.51,0.1-0.71c-0.41-0.81-0.1-1.73-0.2-2.54c0-0.1,0.1-0.2,0.2-0.4c-0.2-0.61-0.2-1.22-0.2-1.83
		c0-1.02,0.1-2.03,0.2-3.05c0-0.92,0.1-1.83,0.3-2.75c0.1-1.02,0.3-2.03,0.41-3.05c0.2-1.42,0.51-2.85,0.71-4.27
		c0.1-0.61,0.2-1.12,0.3-1.73c0-0.51,0.2-1.02,0.31-1.53c0.3-1.53,0.61-3.05,1.12-4.58c0.51-1.53,1.12-2.95,2.03-4.27
		c0.51-0.81,0.92-1.53,1.63-2.24c0.51-0.41,1.12-0.61,1.83-0.71c0.92,0,1.93-0.1,2.85,0.2c0.41,0.1,0.92,0.1,1.33,0.1
		c0.61,0.1,1.22,0.3,1.83,0.3c0.51,0.1,0.92,0.41,1.32,0.41c0.1,0,0.1,0,0.2,0c0.81,0.51,1.73,0.51,2.54,0.81c0.2,0.1,0.41,0,0.61,0
		c0.3,0.2,0.71,0.1,1.12,0.1c1.02-0.1,2.14-0.1,3.15-0.1c0.92,0,1.73,0,2.65,0c0.71,0,1.53,0.2,2.24,0.3c0.1,0,0.2,0,0.2,0
		c0.41,0.51,1.02,0.31,1.63,0.41c0.2,0,0.51,0,0.71,0.1c0.1,0.2,0.2,0.31,0.2,0.51c-0.1,0.2-0.3,0.41-0.3,0.71
		c-0.2,0.1-0.3,0.1-0.41,0.31c-0.2,0.3-0.51,0.71-0.92,0.61c0,0.2,0.2,0.1,0.2,0.31c-0.2,0.1-0.41,0.1-0.61,0.2
		c-0.71,0.81-2.24,2.14-2.75,2.14c-0.2,0.2-0.4,0.3-0.71,0.4c-0.51,0.41-1.22,0.51-1.83,0.61c-0.1,0-0.31,0.1-0.31,0.2
		c-0.2,0.1-0.41,0.2-0.61,0.2c-0.4,0-0.81,0.2-1.12,0.51c-0.2,0.1-0.41,0.2-0.61,0.2c-0.81,0.31-1.63,0.61-2.44,1.02
		c-0.51,0.2-1.02,0.51-1.63,0.81c-0.2,0.1-0.51,0.2-0.71,0.2c-0.4,0-0.71,0.2-1.02,0.3c-0.2,0-0.31,0.1-0.31,0.2
		c-0.1,0.3-0.2,0.51-0.51,0.61c0.1,0.3,0.1,0.61-0.1,0.92c-0.1,0.31-0.1,0.61-0.2,1.02c-0.2,0.71-0.31,1.53-0.41,2.24
		c-0.1,0.61-0.2,1.32-0.2,2.03c-0.2,0.2-0.2,0.51-0.2,0.81c0,0.61,0,1.12-0.1,1.73c0,0.1,0,0.2,0,0.31c0,0.4,0,0.81-0.2,1.22
		c0,0.1-0.1,0.2,0,0.31c0.1,0.41,0,0.81-0.1,1.22c-0.1,0.31-0.1,0.51,0,0.81c-0.1,0.71-0.1,1.53-0.1,2.24c-0.1,0.1-0.1,0.2-0.1,0.31
		c-0.3,0.41-0.2,0.92-0.2,1.42c0,0.41-0.1,0.81-0.1,1.22c0,0.61-0.1,1.12,0,1.53c-0.1,0.2-0.31,0-0.41,0.2c0,0,0,0.1,0.1,0.1
		c0.51,0.51,1.12,0.2,1.73,0.1c0.51,0,0.92-0.2,1.32-0.1c0.51-0.3,1.02-0.3,1.53-0.3c0.51-0.1,1.02-0.2,1.53-0.3
		c1.12-0.2,2.14-0.61,3.26-0.81c0.41,0,0.81-0.1,1.32-0.2c0.61-0.2,1.33-0.31,1.93-0.41c0.81-0.1,1.63-0.2,2.44-0.3
		c1.53-0.1,3.15-0.1,4.68,0c1.02,0.1,2.04,0.2,3.05,0.3c0.2,0,0.51,0,0.81,0c0.3,0.1,0.41,0.2,0.61,0.41
		c-0.1,0.41-0.1,0.71-0.31,1.02c-0.4,0.1-0.61,0.4-0.92,0.61c-0.1,0.2,0,0.31,0,0.51c-0.1,0.1,0,0.41-0.3,0.51
		c-0.2,0.1-0.41,0-0.61,0.2c-0.1,0.1,0,0.3-0.2,0.41c-0.1,0.1-0.41,0.1-0.61,0.41c-0.2,1.22-1.42,1.53-2.54,1.83c0,0-0.1,0-0.2,0
		l-0.1-0.1c-0.2,0.1-0.2,0.3-0.41,0.41c-0.51-0.1-1.02,0.4-1.63,0.2c-0.2,0.51-0.61,0.51-1.02,0.51s-0.71,0.2-1.22,0.3
		c-0.1-0.2-0.3-0.1-0.61-0.1c0.1-0.31,0.4-0.2,0.61-0.2c0.1-0.2-0.1-0.41-0.2-0.61c-0.1,0.1-0.2,0.41-0.4,0.3
		c-0.1,0.2-0.1,0.41-0.2,0.61c-0.41-0.1-0.1-0.3-0.2-0.41c-0.2-0.2-0.31,0.1-0.51,0.1c-0.1,0,0-0.2-0.1-0.31
		c-0.1,0.1-0.2,0.1-0.41,0.1c0,0.41-0.51,0.51-0.71,0.81c-0.41,0-0.71,0.1-1.12,0.2c-0.61,0.2-1.12,0.3-1.63,0.51
		c-0.2,0.1-0.41,0-0.61-0.2c-0.71,0.2-1.42-0.2-2.24,0c-0.1,0.1-0.51-0.1-0.71,0.1c-0.31,0-0.31-0.2-0.41-0.2
		c-0.2,0-0.2,0.2-0.41,0.2c-0.1,0.1-0.2,0-0.41-0.1c-0.2,0.1-0.3,0.3-0.61,0.1c0,0,0.1-0.1,0-0.2c0-0.1-0.2-0.1-0.3-0.2
		c-0.1,0.1-0.2,0.1-0.2,0.2c-0.51-0.1-0.92,0.2-1.43,0c-0.1,0-0.1-0.2-0.3-0.1c0,0.1-0.2,0.3-0.3,0.51c-0.2,0.1-0.51,0-0.61,0.2
		c0.1,0.2,0.2,0.1,0.41,0.2c0.2,0.41-0.1,0.92,0.1,1.32c0.1,0.1,0.3,0.1,0.3,0.31c0,0.81,0.1,1.53,0.2,1.83c0,0.2-0.2,0.31-0.1,0.51
		c0.3,0.4,0.2,0.81,0.1,1.32c0.41,0.3,0.31,0.71,0.41,1.12c-0.1,0.2-0.2,0.2-0.3,0.41c0,0.61,0.61,1.12,0.71,1.73
		c-0.2,0.1-0.41,0-0.61,0.1c0.1,0.2,0.2,0,0.31,0.1c0.1,0.2,0.41,0.3,0.51,0.51c-0.3,0.61,0.1,1.32-0.2,1.93
		c0.1,0.1,0.31,0.2,0.31,0.41c-0.31,0.1-0.2,0.41-0.51,0.61c0.1,0.41,0.41,0.81,0.2,1.22c0.31,0.1,0.61,0.31,0.92,0.51
		c-0.1,0.3,0,0.71-0.2,1.02c-0.1-0.3,0-0.71-0.3-0.92c-0.1,0-0.2-0.1-0.3,0c-0.1,0.1-0.1,0.2,0,0.2c0.3,0.2,0.3,0.61,0.51,0.81
		c0.2,0.2,0,0.51,0.1,0.71c0.2,0,0.1-0.2,0.2-0.3c0.31,0.3,0.41,0.61,0.61,1.02c-0.1,0.1-0.1,0.31,0,0.51c-0.2,0.3-0.41,0-0.61,0.1
		c0,0.31,0.2,0.2,0.2,0.2c0.2,0.31,0.1,0.51,0.41,0.61c0.1,0,0.1-0.2,0.2-0.3c0.1,0.2,0.2,0.4,0.41,0.51
		c-0.1,0.41,0.2,0.71-0.1,1.02c0.1,0.1,0.2,0,0.3,0c0.1-0.1,0-0.41,0.3-0.41c0.1,0,0,0.2,0.1,0.3c0.41,0.1,0.71,0.51,1.02,0.71
		c0.51,0.31,0.92,0.31,1.43,0.31c1.73,0,3.36-0.31,4.99-0.71c1.63-0.41,3.26-1.02,4.89-1.33c1.22-0.3,2.34-0.61,3.46-0.92
		c0.2-0.1,0.41-0.1,0.61-0.2c0.2-0.1,0.51-0.2,0.71,0c0.2-0.1,0-0.1,0.1-0.3c0.61-0.3,1.32-0.61,1.93-1.02
		c1.02-0.81,2.03-1.73,2.95-2.65c0.2-0.3,0.3-0.61,0.51-1.02c0.2,0.31,0.41,0.61,0.61,0.81c0.1,0.1,0.1,0.31,0,0.41
		c-0.2,0.2-0.2,0.41-0.31,0.71c0,0.51-0.3,0.92-0.61,1.22c-0.2,0.2-0.2,0.41-0.2,0.61c0.1,0.3-0.2,0.51-0.1,0.81
		c-0.2,0.2-0.41,0.51-0.1,0.81c-0.2,0.2-0.41,0.51-0.41,0.71c-0.31,0.1-0.61,0.2-0.81,0.41c0,0.1,0.1,0.2,0.1,0.41
		c0,0.1-0.2,0.31-0.2,0.51c-0.81,0.2-1.22,0.92-1.73,1.63c-0.2,0.31-0.61,0.51-0.92,0.71c-0.2,0.2-0.3,0.2-0.41,0.41
		c-0.61,0.2-0.61,0.2-0.92,0c0.41-0.3,0.51-0.81,1.02-0.81c0.1-0.2,0.2-0.41,0.3-0.51c-0.41-0.2-0.51,0.31-0.81,0.2
		c-0.1,0.1,0,0.31-0.1,0.41c-0.3,0-0.61,0-0.71,0.3c-0.2,0.1-0.2-0.1-0.31,0c0,0.2-0.1,0.41-0.4,0.41c0,0-0.1-0.1-0.2-0.1
		c0,0.3,0,0.3-0.1,0.41c-0.3,0-0.51,0-0.71,0.1c0,0.31,0.41,0.2,0.51,0.41c0.1-0.2,0.1-0.41,0.2-0.51c0,0.2,0,0.3,0.2,0.41
		c0.1-0.2,0-0.51,0.1-0.71C145.91,188.57,146.01,188.77,146.22,188.77z M114.47,146.04c-0.1-0.2-0.2-0.2-0.31-0.1
		c0.1,0.2-0.1,0.41-0.1,0.61c0.1,0.1,0.1,0.1,0.3,0C114.16,146.34,114.47,146.14,114.47,146.04z M115.18,178.4c0.1,0,0.3,0,0.51,0
		c-0.2-0.2-0.1-0.31-0.2-0.51C115.18,177.89,115.18,178.19,115.18,178.4z M118.24,159.37c0.2-0.1,0.3-0.2,0.3-0.51
		c-0.1-0.1-0.2-0.1-0.3-0.1C118.03,158.96,118.13,159.16,118.24,159.37z M121.9,180.43c-0.1-0.2-0.2-0.41-0.41-0.61
		c-0.1,0.1-0.2,0.31-0.1,0.51C121.49,180.43,121.7,180.43,121.9,180.43z M122.41,182.97c0.1,0,0.31,0.2,0.51,0.1
		c0-0.1,0-0.2-0.1-0.3c-0.2,0.1-0.41-0.2-0.71-0.2C122.2,182.67,122.31,182.77,122.41,182.97z M127.9,179.01c-0.1,0-0.2,0-0.3,0
		c-0.1-0.41,0-0.71,0.1-1.02C127.7,178.29,127.8,178.7,127.9,179.01z M132.28,191.72c0.1,0.2,0.2,0.41,0.51,0.2
		c0-0.1,0-0.2-0.1-0.41C132.48,191.52,132.38,191.62,132.28,191.72z M132.89,164.96c0.41,0.2,0.71,0.2,1.12-0.1
		C133.5,164.45,133.09,164.45,132.89,164.96z M134.82,192.13c0.1-0.1,0.2-0.2,0.31-0.3c-0.1-0.1-0.1-0.31-0.2-0.41
		c-0.2,0.1-0.2,0.3-0.31,0.41c-0.1,0-0.1,0-0.2-0.1c0-0.2,0.1-0.3,0-0.51c-0.2,0.2-0.61-0.1-0.81,0.2c0.1,0.2,0.3,0.1,0.3,0.3
		c0.1,0-0.1,0.1,0,0.2C134.21,192.03,134.52,192.03,134.82,192.13z M134.82,165.37c0.1-0.2,0.2-0.41,0.41-0.31
		c0.1-0.1,0-0.2,0.1-0.2c0,0,0.1,0,0.2,0.1c0-0.31,0.3-0.31,0.41-0.51c-0.31-0.4-0.31,0.1-0.51,0.1s-0.2-0.1-0.41-0.1
		c-0.1,0-0.3-0.1-0.41,0.1C134.92,164.66,134.72,164.96,134.82,165.37z M136.86,164.25c-0.1,0-0.31,0-0.51-0.1
		c-0.1,0-0.2,0.1-0.2,0.2c0.2,0,0.1,0.2,0.2,0.3c0.1,0,0.2,0,0.41,0C136.86,164.56,136.96,164.45,136.86,164.25z M138.69,190.61
		c0,0.41,0.1,0.41,0.51,0.2C139.09,190.4,138.89,190.71,138.69,190.61z M145.61,161.4c0.1,0.1,0.1,0.2,0.1,0.41
		c0.1,0.1,0.2,0.1,0.4,0.2c0-0.1,0.1-0.1,0.2-0.2c-0.1-0.1-0.2-0.1-0.3-0.2c0,0,0.1-0.1,0-0.3
		C145.91,161.2,145.81,161.3,145.61,161.4z"/>
</g>
<path class="st1" d="M171.97,83.15c-0.27,0.21-0.33,0.87,0.5,2.83c12.75,23.27,27.28,36.2,36.75,33.29
	c7.65-2.35,10.79-14.43,11.44-20.04c2.31-19.65-6.43-48.4-21.68-70.34c1.13,3.3,3.02,8.99,5.07,16.16
	c7.44,26.04,11.77,41.94,3.88,50.78c-1.05,1.18-4.09,4.21-8.58,4.9C186.57,102.69,173.84,81.71,171.97,83.15z"/>
</svg>
